<svg class="animated" id="freepik_stories-plain-credit-card" xmlns="http://www.w3.org/2000/svg" viewBox="0 0 500 500" version="1.1" xmlns:xlink="http://www.w3.org/1999/xlink" xmlns:svgjs="http://svgjs.com/svgjs"><style>svg#freepik_stories-plain-credit-card:not(.animated) .animable {opacity: 0;}svg#freepik_stories-plain-credit-card.animated #freepik--background-simple--inject-7 {animation: 1s 1 forwards cubic-bezier(.36,-0.01,.5,1.38) slideLeft;animation-delay: 0s;}svg#freepik_stories-plain-credit-card.animated #freepik--Shadow--inject-7 {animation: 1s 1 forwards cubic-bezier(.36,-0.01,.5,1.38) slideLeft;animation-delay: 0s;}svg#freepik_stories-plain-credit-card.animated #freepik--Plants--inject-7 {animation: 1s 1 forwards cubic-bezier(.36,-0.01,.5,1.38) slideRight;animation-delay: 0s;}svg#freepik_stories-plain-credit-card.animated #freepik--credit-card--inject-7 {animation: 1s 1 forwards cubic-bezier(.36,-0.01,.5,1.38) slideDown;animation-delay: 0s;}svg#freepik_stories-plain-credit-card.animated #freepik--Character--inject-7 {animation: 1s 1 forwards cubic-bezier(.36,-0.01,.5,1.38) slideUp;animation-delay: 0s;}svg#freepik_stories-plain-credit-card.animated #freepik--Device--inject-7 {animation: 1s 1 forwards cubic-bezier(.36,-0.01,.5,1.38) lightSpeedLeft;animation-delay: 0s;}            @keyframes slideLeft {                0% {                    opacity: 0;                    transform: translateX(-30px);                }                100% {                    opacity: 1;                    transform: translateX(0);                }            }                    @keyframes slideRight {                0% {                    opacity: 0;                    transform: translateX(30px);                }                100% {                    opacity: 1;                    transform: translateX(0);                }            }                    @keyframes slideDown {                0% {                    opacity: 0;                    transform: translateY(-30px);                }                100% {                    opacity: 1;                    transform: translateY(0);                }            }                    @keyframes slideUp {                0% {                    opacity: 0;                    transform: translateY(30px);                }                100% {                    opacity: 1;                    transform: inherit;                }            }                    @keyframes lightSpeedLeft {              from {                transform: translate3d(-50%, 0, 0) skewX(20deg);                opacity: 0;              }              60% {                transform: skewX(-10deg);                opacity: 1;              }              80% {                transform: skewX(2deg);              }              to {                opacity: 1;                transform: translate3d(0, 0, 0);              }            }        </style><g id="freepik--background-simple--inject-7" style="transform-origin: 245.274px 224.79px 0px;" class="animable"><path d="M89.45,289.24c46.24,53,92.93,59.7,158.56,72.27s113.82,3.87,149.33-28.13c41-37,39.37-121.76-23.36-151.94-19.6-9.46-42.94-12.32-60.11-25.6-32.79-25.36-59.31-64.82-112-72.26s-88.13,27.89-88.13,27.89C70.56,158.85,43.21,236.2,89.45,289.24Z" style="fill: rgb(126, 87, 194); transform-origin: 245.274px 224.79px 0px;" id="elzw0twduijj" class="animable"></path><g id="elzrskc670fo"><path d="M89.45,289.24c46.24,53,92.93,59.7,158.56,72.27s113.82,3.87,149.33-28.13c41-37,39.37-121.76-23.36-151.94-19.6-9.46-42.94-12.32-60.11-25.6-32.79-25.36-59.31-64.82-112-72.26s-88.13,27.89-88.13,27.89C70.56,158.85,43.21,236.2,89.45,289.24Z" style="fill: rgb(255, 255, 255); opacity: 0.7; isolation: isolate; transform-origin: 245.274px 224.79px 0px;" class="animable"></path></g></g><g id="freepik--Shadow--inject-7" style="transform-origin: 244.71px 391.57px 0px;" class="animable"><path d="M424.88,376.79c0-4.77-42.9-8.65-95.82-8.65-47.19,0-86.39,3.08-94.33,7.14h-5.37c-91,0-164.82,8.88-164.82,19.83S138.33,415,229.36,415s164.81-8.88,164.81-19.84c0-3.84-9.08-7.43-24.8-10.46C402.15,383.26,424.88,380.27,424.88,376.79Z" style="fill: rgb(126, 87, 194); transform-origin: 244.71px 391.57px 0px;" id="elfzcq37ql3w" class="animable"></path><g id="elw3ysc6v2wl"><path d="M424.88,376.79c0-4.77-42.9-8.65-95.82-8.65-47.19,0-86.39,3.08-94.33,7.14h-5.37c-91,0-164.82,8.88-164.82,19.83S138.33,415,229.36,415s164.81-8.88,164.81-19.84c0-3.84-9.08-7.43-24.8-10.46C402.15,383.26,424.88,380.27,424.88,376.79Z" style="fill: rgb(255, 255, 255); opacity: 0.4; isolation: isolate; transform-origin: 244.71px 391.57px 0px;" class="animable"></path></g></g><g id="freepik--Plants--inject-7" style="transform-origin: 251.16px 222.06px 0px;" class="animable"><path d="M84.5,278.34c10,26.13,38.88,39.37,38.88,39.37s12.57-29.14,2.53-55.28S87,223.06,87,223.06,74.46,252.2,84.5,278.34Z" style="fill: rgb(126, 87, 194); transform-origin: 105.202px 270.385px 0px;" id="ela1axp0f1gcn" class="animable"></path><g id="el64n1hejqxh8"><path d="M84.5,278.34c10,26.13,38.88,39.37,38.88,39.37s12.57-29.14,2.53-55.28S87,223.06,87,223.06,74.46,252.2,84.5,278.34Z" style="fill: rgb(255, 255, 255); opacity: 0.4; isolation: isolate; transform-origin: 105.202px 270.385px 0px;" class="animable"></path></g><line x1="123.38" y1="317.71" x2="87.03" y2="223.06" style="fill: none; stroke: rgb(255, 255, 255); stroke-linecap: round; stroke-linejoin: round; stroke-width: 0.898387px; transform-origin: 105.205px 270.385px 0px;" id="eljflypjeue5f" class="animable"></line><line x1="99.95" y1="256.7" x2="84.47" y2="251.03" style="fill: none; stroke: rgb(255, 255, 255); stroke-linecap: round; stroke-linejoin: round; stroke-width: 0.898387px; transform-origin: 92.21px 253.865px 0px;" id="el9tl9ykyivk" class="animable"></line><line x1="106.14" y1="272.27" x2="112.51" y2="245.97" style="fill: none; stroke: rgb(255, 255, 255); stroke-linecap: round; stroke-linejoin: round; stroke-width: 0.898387px; transform-origin: 109.325px 259.12px 0px;" id="eltv84ltexvsr" class="animable"></line><line x1="109.42" y1="281.36" x2="86.44" y2="272.66" style="fill: none; stroke: rgb(255, 255, 255); stroke-linecap: round; stroke-linejoin: round; stroke-width: 0.898387px; transform-origin: 97.93px 277.01px 0px;" id="elwkimn56pck" class="animable"></line><line x1="114.27" y1="293.43" x2="125.4" y2="271.84" style="fill: none; stroke: rgb(255, 255, 255); stroke-linecap: round; stroke-linejoin: round; stroke-width: 0.898387px; transform-origin: 119.835px 282.635px 0px;" id="elqb41i6e2dvk" class="animable"></line><line x1="118.3" y1="303.92" x2="101.02" y2="298.52" style="fill: none; stroke: rgb(255, 255, 255); stroke-linecap: round; stroke-linejoin: round; stroke-width: 0.898387px; transform-origin: 109.66px 301.22px 0px;" id="elkivgah28eq" class="animable"></line><path d="M85.63,324.16c14.41,7.47,32,2.12,32,2.12s-5.76-17.48-20.17-24.95-32-2.13-32-2.13S71.22,316.68,85.63,324.16Z" style="fill: rgb(126, 87, 194); transform-origin: 91.545px 312.743px 0px;" id="elawjatlf6cjg" class="animable"></path><g id="el14xd31wjei"><path d="M85.63,324.16c14.41,7.47,32,2.12,32,2.12s-5.76-17.48-20.17-24.95-32-2.13-32-2.13S71.22,316.68,85.63,324.16Z" style="fill: rgb(255, 255, 255); opacity: 0.4; isolation: isolate; transform-origin: 91.545px 312.743px 0px;" class="animable"></path></g><line x1="117.65" y1="326.28" x2="65.47" y2="299.2" style="fill: none; stroke: rgb(255, 255, 255); stroke-linecap: round; stroke-linejoin: round; stroke-width: 0.898387px; transform-origin: 91.56px 312.74px 0px;" id="elgqytqtffkj" class="animable"></line><line x1="84.02" y1="308.83" x2="75.12" y2="312.32" style="fill: none; stroke: rgb(255, 255, 255); stroke-linecap: round; stroke-linejoin: round; stroke-width: 0.898387px; transform-origin: 79.57px 310.575px 0px;" id="el5b1fplsmd2" class="animable"></line><line x1="92.69" y1="313.2" x2="85.33" y2="299.34" style="fill: none; stroke: rgb(255, 255, 255); stroke-linecap: round; stroke-linejoin: round; stroke-width: 0.898387px; transform-origin: 89.01px 306.27px 0px;" id="elbxtuitpc4uk" class="animable"></line><line x1="97.61" y1="315.88" x2="84.29" y2="320.95" style="fill: none; stroke: rgb(255, 255, 255); stroke-linecap: round; stroke-linejoin: round; stroke-width: 0.898387px; transform-origin: 90.95px 318.415px 0px;" id="el009qy7hlvt97" class="animable"></line><line x1="104.36" y1="319.25" x2="100.88" y2="305.6" style="fill: none; stroke: rgb(255, 255, 255); stroke-linecap: round; stroke-linejoin: round; stroke-width: 0.898387px; transform-origin: 102.62px 312.425px 0px;" id="elivp8o2h233k" class="animable"></line><line x1="110.14" y1="322.26" x2="100.57" y2="326.56" style="fill: none; stroke: rgb(255, 255, 255); stroke-linecap: round; stroke-linejoin: round; stroke-width: 0.898387px; transform-origin: 105.355px 324.41px 0px;" id="elogktiqhe8xr" class="animable"></line><path d="M132.12,287.57c-6.38,14.93.28,32.08.28,32.08s17-7,23.37-22-.27-32.09-.27-32.09S138.51,272.64,132.12,287.57Z" style="fill: rgb(126, 87, 194); transform-origin: 143.944px 292.605px 0px;" id="el4evfdq1rtd5" class="animable"></path><g id="elofprgmbbutn"><path d="M132.12,287.57c-6.38,14.93.28,32.08.28,32.08s17-7,23.37-22-.27-32.09-.27-32.09S138.51,272.64,132.12,287.57Z" style="fill: rgb(255, 255, 255); opacity: 0.4; isolation: isolate; transform-origin: 143.944px 292.605px 0px;" class="animable"></path></g><line x1="132.4" y1="319.65" x2="155.5" y2="265.59" style="fill: none; stroke: rgb(255, 255, 255); stroke-linecap: round; stroke-linejoin: round; stroke-width: 0.898387px; transform-origin: 143.95px 292.62px 0px;" id="elt87lirm3umi" class="animable"></line><line x1="147.29" y1="284.81" x2="143.14" y2="276.2" style="fill: none; stroke: rgb(255, 255, 255); stroke-linecap: round; stroke-linejoin: round; stroke-width: 0.898387px; transform-origin: 145.215px 280.505px 0px;" id="elz2lvbhlpea" class="animable"></line><line x1="143.58" y1="293.79" x2="156.85" y2="285.42" style="fill: none; stroke: rgb(255, 255, 255); stroke-linecap: round; stroke-linejoin: round; stroke-width: 0.898387px; transform-origin: 150.215px 289.605px 0px;" id="el19v85syl39o" class="animable"></line><line x1="141.27" y1="298.89" x2="135.22" y2="285.99" style="fill: none; stroke: rgb(255, 255, 255); stroke-linecap: round; stroke-linejoin: round; stroke-width: 0.898387px; transform-origin: 138.245px 292.44px 0px;" id="elhote7l81f17" class="animable"></line><line x1="138.41" y1="305.87" x2="151.76" y2="301.39" style="fill: none; stroke: rgb(255, 255, 255); stroke-linecap: round; stroke-linejoin: round; stroke-width: 0.898387px; transform-origin: 145.085px 303.63px 0px;" id="el1dzdb3ol8fc" class="animable"></line><line x1="135.85" y1="311.86" x2="130.84" y2="302.64" style="fill: none; stroke: rgb(255, 255, 255); stroke-linecap: round; stroke-linejoin: round; stroke-width: 0.898387px; transform-origin: 133.345px 307.25px 0px;" id="elqy9xoc4pvv" class="animable"></line><path d="M241.71,113.39c1.57-.58,3.09-1.3,4.64-2s3.05-1.39,4.56-2.12a107.69,107.69,0,0,0,17.17-10.43A75.86,75.86,0,0,0,282.55,85a75.78,75.78,0,0,1-14.72,13.5,107.67,107.67,0,0,1-17.28,10c-12,5.77-25.1,8.44-37.71,12.88a49,49,0,0,0,4.54-4.9c2.16-2.83,3.41-6,.87-8.57-3.12-3.21-8.61-1.41-9,4.35a21,21,0,0,0,1.88,9.74c-2.65,1-5.28,2-7.88,3.06-1.91.84-3.8,1.7-5.67,2.62a33.52,33.52,0,0,0,2.79-3.16c2.16-2.83,3.41-5.94.87-8.56-3.12-3.22-8.6-1.42-9,4.35a20.6,20.6,0,0,0,1.67,9.26,94.06,94.06,0,0,0-15.17,10.2,38.15,38.15,0,0,0,2.11-4c1.41-3.27,1.87-6.59-1.23-8.52-3.81-2.37-8.7.71-7.69,6.4a20.82,20.82,0,0,0,3.91,8.64,99.2,99.2,0,0,0-13,14.25,33.6,33.6,0,0,0,.71-3.73c.43-3.53-.08-6.85-3.6-7.82-4.32-1.19-8.13,3.14-5.55,8.31a20.54,20.54,0,0,0,5.81,6.89,123.4,123.4,0,0,0-7.62,12.63c-.36.69-.7,1.38-1.05,2.07a4.63,4.63,0,0,0-.58.31v-2c-.12-3.56-1.13-6.76-4.75-7.17-4.46-.51-7.56,4.35-4.21,9.06a20.4,20.4,0,0,0,6.46,5.73,1.18,1.18,0,0,0,0,.41q-2.25,5-4.15,10.18c-.94,2.57-1.81,5.17-2.64,7.79-3.67-1.08-7.45,2.16-6.21,7.28a19.47,19.47,0,0,0,2.62,6q-1.74,7.55-2.92,15.2a4.23,4.23,0,0,0-3.66-2.07c-2.49-.05-4.08,1.49-5.13,3.67a4.84,4.84,0,0,0-2.16,2.8c-1-3.06-1.81-6.17-2.59-9.29a22.92,22.92,0,0,0,7.87-5.1c4.29-4.34,2.5-9.73-1.85-9.83-3.53-.08-5.25,3-6.2,6.66a36.84,36.84,0,0,0-.82,4.16c-.27-1.16-.54-2.32-.8-3.48-.67-2.94-1.11-5.91-1.67-8.86a20,20,0,0,1-.34-2.19,22.76,22.76,0,0,0,8.67-3.52c5-3.46,4.28-9.1,0-10-3.46-.74-5.73,2-7.34,5.38a39.25,39.25,0,0,0-1.79,4.54l-.38-3.15a151.08,151.08,0,0,1-.58-21.27,22.94,22.94,0,0,0,9.64-2.68c5.35-2.94,5.17-8.62,1-10-3.36-1.08-5.9,1.43-7.84,4.62a46.66,46.66,0,0,0-2.69,5.33q.35-6.09,1.09-12.15c.27-2.53.71-5,1.12-7.53A22.85,22.85,0,0,0,129,152.35c5.68-2.22,6.24-7.88,2.31-9.74-3.19-1.51-6,.65-8.38,3.56A59,59,0,0,0,119,152c.57-2.88,1.11-5.77,1.82-8.61a133.85,133.85,0,0,1,5.22-17.4,136,136,0,0,0-5.76,17.26c-.76,2.69-1.36,5.42-2,8.15a45.24,45.24,0,0,0-1-6c-.89-3.45-2.56-6.36-6.19-6-4.46.46-6.45,5.88-2.17,9.76a20.78,20.78,0,0,0,9,4.52c-.48,2.45-1,4.91-1.33,7.39q-.92,5.88-1.44,11.83A42.42,42.42,0,0,0,113.7,168c-1.32-3.3-3.36-6-6.91-5.13-4.36,1-5.63,6.66-.88,10a20.85,20.85,0,0,0,9,3.34,151.05,151.05,0,0,0-.07,21.38l.19,2.15a34.45,34.45,0,0,0-1.43-3.23c-1.64-3.15-3.94-5.6-7.39-4.41-4.24,1.46-4.93,7.19.12,10a20.6,20.6,0,0,0,9.12,2.42c.07.74.15,1.47.28,2.2.48,3,.84,6.07,1.42,9.06.16.86.34,1.71.51,2.57a25.59,25.59,0,0,0-1.6-2.26c-2.2-2.79-4.92-4.77-8.08-3-3.89,2.24-3.5,8,2,9.8a20.48,20.48,0,0,0,8.8.75c.73,3.34,1.53,6.66,2.47,10,.35,1.26.71,2.51,1.09,3.76a34.21,34.21,0,0,0-2.41-3.56c-2.2-2.79-4.92-4.77-8.08-3-3.89,2.23-3.5,8,2,9.8a20.82,20.82,0,0,0,9.76.6q.8,2.34,1.71,4.66c-2.77,1.78-3.3,6,.36,9.07a20,20,0,0,0,6,3.34c.2.28.4.56.62.84l.1.14a320.26,320.26,0,0,0,.76,32.05q.74,10.1,2.06,20.13c.91,6.71,1.94,13.32,3.39,20.07l6.5-1.55c-1.49-6.3-2.67-12.89-3.69-19.41s-1.81-13.13-2.44-19.72c-.81-8.79-1.3-17.6-1.39-26.42h0c.42.23.77.49,1.24.7a6,6,0,0,0,1.7.58l.59-4.42H141l-.35-.14c-.23-.08-.5-.28-.75-.4a11.42,11.42,0,0,1-1.54-1.15l-.57-.51a22.23,22.23,0,0,0,7.91-1.83c5.58-2.48,5.88-8.15,1.87-9.83-3.26-1.36-6,.92-8.21,3.93-.62.86-1.2,1.77-1.75,2.68,0-1,0-1.94.09-2.91q.17-4.29.48-8.57a22.54,22.54,0,0,0,8.52-1.86c5.57-2.48,5.88-8.15,1.87-9.83-3.26-1.36-6,.92-8.21,3.93-.64.87-1.23,1.8-1.78,2.73.19-2.07.39-4.14.63-6.2.18-1.53.39-3.06.61-4.58.53-2.1,1.12-4.19,1.75-6.27.36-1.14.73-2.27,1.12-3.4a22.86,22.86,0,0,0,7.49,3.3c5.95,1.35,9.59-3,7.38-6.76-1.79-3.05-5.35-2.85-8.93-1.76a44.1,44.1,0,0,0-4.71,1.83,98,98,0,0,1,6.5-13.84,83.54,83.54,0,0,1,4.91-7.56,22.9,22.9,0,0,0,8,3.65c5.95,1.35,9.59-3,7.38-6.76-1.8-3-5.36-2.85-8.93-1.76a36,36,0,0,0-3.75,1.41,65.73,65.73,0,0,1,6.19-6.52,59.26,59.26,0,0,1,15-10,22.76,22.76,0,0,0,6.4,6.89c5,3.47,10,.77,9.37-3.52-.54-3.5-3.92-4.65-7.64-5a37.64,37.64,0,0,0-4.25-.08h.1a92.08,92.08,0,0,1,18.21-5.1,22.93,22.93,0,0,0,5.36,8.19c4.4,4.22,9.77,2.36,9.81-2,0-3.54-3.13-5.21-6.75-6.11a39.46,39.46,0,0,0-4.32-.77c6.58-1,13.25-1.86,19.83-3.19h.14a22.87,22.87,0,0,0,7.47,7.24c5.26,3.09,10,0,9.07-4.21-.79-3.45-4.25-4.34-8-4.38-1.05,0-2.11.06-3.14.14a134.39,134.39,0,0,0,13.16-3.94l.21.41.11-.12a22.72,22.72,0,0,0,7.51,7.31c5.27,3.09,10,0,9.08-4.21-.8-3.45-4.25-4.34-8-4.38a71.32,71.32,0,0,0-8,.67c1.56-.57,3.12-1.16,4.65-1.79a190.2,190.2,0,0,0,20.66-9.92A181.66,181.66,0,0,1,246.21,155a44.2,44.2,0,0,0,4-4.32c2.16-2.83,3.4-6,.86-8.56-3.12-3.22-8.6-1.42-9,4.35a20.75,20.75,0,0,0,1.72,9.36A128.46,128.46,0,0,1,227.5,160l-.53.1a46.07,46.07,0,0,0,4.29-4.65c2.16-2.83,3.41-5.95.87-8.56-3.13-3.22-8.61-1.42-9,4.35a20.54,20.54,0,0,0,1.67,9.25c-6.6,1.13-13.27,1.78-20,2.64l-1,.13a38.65,38.65,0,0,0,4.39-3c2.76-2.25,4.7-5,2.83-8.13-2.28-3.85-8-3.38-9.76,2.14a20.75,20.75,0,0,0-.53,9.43,93,93,0,0,0-18.44,4.66l-.2.08a35.68,35.68,0,0,0,2.78-2.72c2.36-2.66,3.84-5.68,1.5-8.48a5,5,0,0,0-7-.69,5.24,5.24,0,0,0-.77.79,4.48,4.48,0,0,0-1.1-1.91c-2.44-2.57-5.86-1.59-9.1.27a25.76,25.76,0,0,0-2.46,1.59,94.77,94.77,0,0,1,11.68-13.15,22.84,22.84,0,0,0,8.08,4.4c5.85,1.72,9.76-2.41,7.78-6.28-1.6-3.16-5.17-3.19-8.8-2.32A36.13,36.13,0,0,0,181.1,141a89.73,89.73,0,0,1,13.8-9.55,22.72,22.72,0,0,0,7.08,6.65c5.27,3.09,10,0,9.07-4.21-.79-3.45-4.24-4.34-8-4.37a42.47,42.47,0,0,0-5.29.35c2-1,4-2,6.08-3,2.67-1.19,5.38-2.3,8.15-3.34a22.79,22.79,0,0,0,7,6.51c5.27,3.08,10,0,9.07-4.22-.79-3.44-4.24-4.33-8-4.37a23.13,23.13,0,0,0-2.63.1c4.84-1.68,9.74-3.21,14.63-4.8C235.4,115.69,238.58,114.6,241.71,113.39ZM158,182.77a10.2,10.2,0,0,0,1.54-.08c-.86.84-1.69,1.71-2.5,2.59.24-.55.47-1.1.68-1.66A5.63,5.63,0,0,0,158,182.77Zm-31,57.15,1.06-.53a20.83,20.83,0,0,0,4.67,2.34V242l.84.07q-.3,3.22-.51,6.43a5.51,5.51,0,0,0-3.91-3.39A52.78,52.78,0,0,1,127,239.92Zm20.58-41.84c-.84,1.39-1.63,2.81-2.39,4.24L145,202c.88-3.13,1.86-6.23,2.91-9.31.74-2.15,1.54-4.28,2.37-6.4a22.25,22.25,0,0,0,2.62,3.91,82.65,82.65,0,0,0-5.35,7.88Zm24.36-34.48a7.82,7.82,0,0,0,5.18-1.71,20.81,20.81,0,0,0,1,8.14A62.55,62.55,0,0,0,167,176.41a4.25,4.25,0,0,0-1.7-2.89c-2.8-2.16-6-.66-9,1.67l-.13.12-.19-.12a4.46,4.46,0,0,0-.63-.28c.09-.17.16-.34.25-.5A120.07,120.07,0,0,1,163,161.67a22.68,22.68,0,0,0,8.93,1.93Z" style="fill: rgb(126, 87, 194); transform-origin: 192.666px 208.27px 0px;" id="elz1brlxj73cc" class="animable"></path><path d="M282.55,85.06a75.78,75.78,0,0,1-14.72,13.5,107.67,107.67,0,0,1-17.28,10l-.68.32a51.57,51.57,0,0,0,4.69-5c2.16-2.82,3.4-5.94.86-8.56-3.12-3.22-8.6-1.42-9,4.35a20.68,20.68,0,0,0,2,9.94,138,138,0,0,1-15.54,5.65,48.71,48.71,0,0,0,4.48-4.83c2.16-2.83,3.4-6,.86-8.57-3.12-3.22-8.6-1.41-9,4.35a20.65,20.65,0,0,0,1.83,9.61c-6.06,1.84-12.19,3.56-18.19,5.67a49,49,0,0,0,4.54-4.9c2.16-2.83,3.41-6,.87-8.57-3.12-3.21-8.61-1.41-9,4.35a21,21,0,0,0,1.88,9.74c-2.65,1-5.28,2-7.88,3.06-1.91.84-3.8,1.7-5.67,2.62a33.52,33.52,0,0,0,2.79-3.16c2.16-2.83,3.41-5.94.87-8.56-3.12-3.22-8.6-1.42-9,4.35a20.6,20.6,0,0,0,1.67,9.26,94.06,94.06,0,0,0-15.17,10.2,38.15,38.15,0,0,0,2.11-4c1.41-3.27,1.87-6.59-1.23-8.52-3.81-2.37-8.7.71-7.69,6.4a20.82,20.82,0,0,0,3.91,8.64,99.2,99.2,0,0,0-13,14.25,33.6,33.6,0,0,0,.71-3.73c.43-3.53-.08-6.85-3.6-7.82-4.32-1.19-8.13,3.14-5.55,8.31a20.54,20.54,0,0,0,5.81,6.89,123.4,123.4,0,0,0-7.62,12.63c-.36.69-.7,1.38-1.05,2.07a4.63,4.63,0,0,0-.58.31v-2c-.12-3.56-1.13-6.76-4.75-7.17-4.46-.51-7.56,4.35-4.21,9.06a20.4,20.4,0,0,0,6.46,5.73,1.18,1.18,0,0,0,.05.41q-2.25,5-4.15,10.18c-.94,2.57-1.81,5.17-2.64,7.79-3.67-1.08-7.45,2.16-6.21,7.28a19.47,19.47,0,0,0,2.62,6q-1.74,7.54-2.92,15.2a4.23,4.23,0,0,0-3.66-2.07c-2.49-.05-4.08,1.49-5.13,3.67a4.84,4.84,0,0,0-2.16,2.8c-1-3.06-1.81-6.17-2.59-9.29a22.92,22.92,0,0,0,7.87-5.1c4.29-4.34,2.5-9.73-1.85-9.83-3.53-.08-5.25,3-6.2,6.66a36.84,36.84,0,0,0-.82,4.16c-.27-1.16-.54-2.32-.8-3.48-.67-2.94-1.11-5.91-1.67-8.86a20,20,0,0,1-.34-2.19,22.76,22.76,0,0,0,8.67-3.52c5-3.46,4.28-9.1,0-10-3.46-.74-5.73,2-7.34,5.38a39.25,39.25,0,0,0-1.79,4.54l-.38-3.15a151.08,151.08,0,0,1-.58-21.27,22.94,22.94,0,0,0,9.64-2.68c5.35-2.94,5.17-8.62,1-10-3.36-1.08-5.9,1.43-7.84,4.62a46.66,46.66,0,0,0-2.69,5.33q.34-6.09,1.09-12.15c.27-2.53.71-5,1.12-7.53A22.85,22.85,0,0,0,129,152.45c5.68-2.22,6.24-7.88,2.31-9.74-3.19-1.51-6,.65-8.38,3.56a59,59,0,0,0-3.91,5.85c.57-2.88,1.11-5.77,1.82-8.61a133.85,133.85,0,0,1,5.22-17.4,136,136,0,0,0-5.76,17.26c-.76,2.69-1.36,5.42-2,8.15a45.24,45.24,0,0,0-1-6c-.89-3.45-2.56-6.36-6.19-6-4.46.46-6.45,5.88-2.17,9.76a20.85,20.85,0,0,0,9,4.42c-.48,2.45-1,4.91-1.33,7.39q-.92,5.88-1.44,11.83A42.42,42.42,0,0,0,113.7,168c-1.32-3.3-3.36-6-6.91-5.13-4.36,1-5.63,6.66-.88,10a20.85,20.85,0,0,0,9,3.34,151.05,151.05,0,0,0-.07,21.38l.19,2.15a34.45,34.45,0,0,0-1.43-3.23c-1.64-3.15-3.94-5.6-7.39-4.41-4.24,1.46-4.93,7.19.12,10a20.6,20.6,0,0,0,9.12,2.42c.07.74.15,1.47.28,2.2.48,3,.84,6.07,1.42,9.06.16.86.34,1.71.51,2.57a25.59,25.59,0,0,0-1.6-2.26c-2.2-2.79-4.92-4.77-8.08-3-3.89,2.24-3.5,8,2,9.8a20.48,20.48,0,0,0,8.8.75c.73,3.34,1.53,6.66,2.47,10,.35,1.26.71,2.51,1.09,3.76a34.21,34.21,0,0,0-2.41-3.56c-2.2-2.79-4.92-4.77-8.08-3-3.89,2.23-3.5,8,2,9.8a20.82,20.82,0,0,0,9.76.6q.8,2.34,1.71,4.66c-2.77,1.78-3.3,6,.36,9.07a20,20,0,0,0,6,3.34c.2.28.4.56.62.84l.1.14a320.26,320.26,0,0,0,.76,32.05q.74,10.1,2.06,20.13c.91,6.71,1.94,13.32,3.39,20.07l6.5-1.55c-1.49-6.3-2.67-12.89-3.69-19.41s-1.81-13.13-2.44-19.72c-.81-8.79-1.3-17.6-1.39-26.42h0c.42.23.77.49,1.24.7a6,6,0,0,0,1.7.58l.59-4.42H141l-.35-.14c-.23-.08-.5-.28-.75-.4a11.42,11.42,0,0,1-1.54-1.15l-.57-.51a22.23,22.23,0,0,0,7.91-1.83c5.58-2.48,5.88-8.15,1.87-9.83-3.26-1.36-6,.92-8.21,3.93-.62.86-1.2,1.77-1.75,2.68,0-1,0-1.94.09-2.91q.17-4.29.48-8.57a22.54,22.54,0,0,0,8.52-1.86c5.57-2.48,5.88-8.15,1.87-9.83-3.26-1.36-6,.92-8.21,3.93-.64.87-1.23,1.8-1.78,2.73.19-2.07.39-4.14.63-6.2.18-1.53.39-3.06.61-4.58.53-2.1,1.12-4.19,1.75-6.27.36-1.14.73-2.27,1.12-3.4a22.86,22.86,0,0,0,7.49,3.3c5.95,1.35,9.59-3,7.38-6.76-1.79-3.05-5.35-2.85-8.93-1.76a44.1,44.1,0,0,0-4.71,1.83,98,98,0,0,1,6.5-13.84,83.54,83.54,0,0,1,4.91-7.56,22.9,22.9,0,0,0,8,3.65c5.95,1.35,9.59-3,7.38-6.76-1.8-3-5.36-2.85-8.93-1.76a36,36,0,0,0-3.75,1.41,65.73,65.73,0,0,1,6.19-6.52,59.26,59.26,0,0,1,15-10,22.76,22.76,0,0,0,6.4,6.89c5,3.47,10,.77,9.37-3.52-.54-3.5-3.92-4.65-7.64-5a37.64,37.64,0,0,0-4.25-.08h.1a92.08,92.08,0,0,1,18.21-5.1,22.93,22.93,0,0,0,5.36,8.19c4.4,4.22,9.77,2.36,9.81-2,0-3.54-3.13-5.21-6.75-6.11a39.46,39.46,0,0,0-4.32-.77c6.58-1,13.25-1.86,19.83-3.19h.14a22.87,22.87,0,0,0,7.47,7.24c5.26,3.09,10,0,9.07-4.21-.79-3.45-4.25-4.34-8-4.38-1.05,0-2.11.06-3.14.14a134.39,134.39,0,0,0,13.16-3.94l.21.41.11-.12a22.72,22.72,0,0,0,7.51,7.31c5.27,3.09,10,0,9.08-4.21-.8-3.45-4.25-4.34-8-4.38a71.32,71.32,0,0,0-8,.67c1.56-.57,3.12-1.16,4.65-1.79a190.2,190.2,0,0,0,20.66-9.92A181.66,181.66,0,0,1,246.21,155a44.2,44.2,0,0,0,4-4.32c2.16-2.83,3.4-6,.86-8.56-3.12-3.22-8.6-1.42-9,4.35a20.75,20.75,0,0,0,1.72,9.36A128.46,128.46,0,0,1,227.5,160l-.53.1a46.07,46.07,0,0,0,4.29-4.65c2.16-2.83,3.41-5.95.87-8.56-3.13-3.22-8.61-1.42-9,4.35a20.54,20.54,0,0,0,1.67,9.25c-6.6,1.13-13.27,1.78-20,2.64l-1,.13a38.65,38.65,0,0,0,4.39-3c2.76-2.25,4.7-5,2.83-8.13-2.28-3.85-8-3.38-9.76,2.14a20.75,20.75,0,0,0-.53,9.43,93,93,0,0,0-18.44,4.66l-.2.08a35.68,35.68,0,0,0,2.78-2.72c2.36-2.66,3.84-5.68,1.5-8.48a5,5,0,0,0-7-.69,5.24,5.24,0,0,0-.77.79,4.48,4.48,0,0,0-1.1-1.91c-2.44-2.57-5.86-1.59-9.1.27a25.76,25.76,0,0,0-2.46,1.59,94.77,94.77,0,0,1,11.68-13.15,22.84,22.84,0,0,0,8.08,4.4c5.85,1.72,9.76-2.41,7.78-6.28-1.6-3.16-5.17-3.19-8.8-2.32A36.13,36.13,0,0,0,181.1,141a89.73,89.73,0,0,1,13.8-9.55,22.72,22.72,0,0,0,7.08,6.65c5.27,3.09,10,0,9.07-4.21-.79-3.45-4.24-4.34-8-4.37a42.47,42.47,0,0,0-5.29.35c2-1,4-2,6.08-3,2.67-1.19,5.38-2.3,8.15-3.34a22.79,22.79,0,0,0,7,6.51c5.27,3.08,10,0,9.07-4.22-.79-3.44-4.24-4.33-8-4.37a23.13,23.13,0,0,0-2.63.1c4.69-1.63,9.44-3.12,14.19-4.66a22.91,22.91,0,0,0,7.3,7c5.27,3.08,10,0,9.08-4.22-.8-3.44-4.25-4.33-8-4.37a42.71,42.71,0,0,0-4.38.25c2-.67,4-1.37,5.92-2.13,1.57-.58,3.09-1.3,4.64-2,.88-.36,1.75-.76,2.61-1.17a22.94,22.94,0,0,0,7.34,7c5.27,3.08,10.05,0,9.08-4.22-.8-3.45-4.25-4.34-8-4.37a49.62,49.62,0,0,0-6.21.46,108.37,108.37,0,0,0,16.9-10.3A76,76,0,0,0,282.55,85.06ZM133,248.51a5.51,5.51,0,0,0-3.91-3.39c-.76-1.71-1.45-3.45-2.11-5.2l1.06-.53a20.83,20.83,0,0,0,4.67,2.34V242l.84.07C133.32,244.23,133.13,246.37,133,248.51Zm14.56-50.43c-.84,1.39-1.63,2.81-2.39,4.24L145,202c.88-3.13,1.86-6.23,2.91-9.31.74-2.15,1.54-4.28,2.37-6.4a22.25,22.25,0,0,0,2.62,3.91,82.65,82.65,0,0,0-5.35,7.88Zm9.51-12.8c.24-.55.47-1.1.68-1.66.1-.28.19-.57.28-.85a10.2,10.2,0,0,0,1.54-.08c-.87.84-1.7,1.71-2.51,2.59Zm14.85-21.68a7.82,7.82,0,0,0,5.18-1.71,20.81,20.81,0,0,0,1,8.14,62.38,62.38,0,0,0-11.1,6.38,4.25,4.25,0,0,0-1.7-2.89c-2.8-2.16-6-.66-9,1.67l-.13.12-.19-.12a4.46,4.46,0,0,0-.63-.28c.09-.17.16-.34.25-.5A120.07,120.07,0,0,1,163,161.67a22.68,22.68,0,0,0,8.93,1.93Z" style="fill: rgb(126, 87, 194); transform-origin: 192.667px 208.3px 0px;" id="el7rir3emhsm2" class="animable"></path><g id="elp9b1jrbxofr"><g style="opacity: 0.7; transform-origin: 192.667px 208.3px 0px;" class="animable"><g id="elf2b21sl6jvn"><path d="M282.55,85.06a75.78,75.78,0,0,1-14.72,13.5,107.67,107.67,0,0,1-17.28,10l-.68.32a51.57,51.57,0,0,0,4.69-5c2.16-2.82,3.4-5.94.86-8.56-3.12-3.22-8.6-1.42-9,4.35a20.68,20.68,0,0,0,2,9.94,138,138,0,0,1-15.54,5.65,48.71,48.71,0,0,0,4.48-4.83c2.16-2.83,3.4-6,.86-8.57-3.12-3.22-8.6-1.41-9,4.35a20.65,20.65,0,0,0,1.83,9.61c-6.06,1.84-12.19,3.56-18.19,5.67a49,49,0,0,0,4.54-4.9c2.16-2.83,3.41-6,.87-8.57-3.12-3.21-8.61-1.41-9,4.35a21,21,0,0,0,1.88,9.74c-2.65,1-5.28,2-7.88,3.06-1.91.84-3.8,1.7-5.67,2.62a33.52,33.52,0,0,0,2.79-3.16c2.16-2.83,3.41-5.94.87-8.56-3.12-3.22-8.6-1.42-9,4.35a20.6,20.6,0,0,0,1.67,9.26,94.06,94.06,0,0,0-15.17,10.2,38.15,38.15,0,0,0,2.11-4c1.41-3.27,1.87-6.59-1.23-8.52-3.81-2.37-8.7.71-7.69,6.4a20.82,20.82,0,0,0,3.91,8.64,99.2,99.2,0,0,0-13,14.25,33.6,33.6,0,0,0,.71-3.73c.43-3.53-.08-6.85-3.6-7.82-4.32-1.19-8.13,3.14-5.55,8.31a20.54,20.54,0,0,0,5.81,6.89,123.4,123.4,0,0,0-7.62,12.63c-.36.69-.7,1.38-1.05,2.07a4.63,4.63,0,0,0-.58.31v-2c-.12-3.56-1.13-6.76-4.75-7.17-4.46-.51-7.56,4.35-4.21,9.06a20.4,20.4,0,0,0,6.46,5.73,1.18,1.18,0,0,0,.05.41q-2.25,5-4.15,10.18c-.94,2.57-1.81,5.17-2.64,7.79-3.67-1.08-7.45,2.16-6.21,7.28a19.47,19.47,0,0,0,2.62,6q-1.74,7.54-2.92,15.2a4.23,4.23,0,0,0-3.66-2.07c-2.49-.05-4.08,1.49-5.13,3.67a4.84,4.84,0,0,0-2.16,2.8c-1-3.06-1.81-6.17-2.59-9.29a22.92,22.92,0,0,0,7.87-5.1c4.29-4.34,2.5-9.73-1.85-9.83-3.53-.08-5.25,3-6.2,6.66a36.84,36.84,0,0,0-.82,4.16c-.27-1.16-.54-2.32-.8-3.48-.67-2.94-1.11-5.91-1.67-8.86a20,20,0,0,1-.34-2.19,22.76,22.76,0,0,0,8.67-3.52c5-3.46,4.28-9.1,0-10-3.46-.74-5.73,2-7.34,5.38a39.25,39.25,0,0,0-1.79,4.54l-.38-3.15a151.08,151.08,0,0,1-.58-21.27,22.94,22.94,0,0,0,9.64-2.68c5.35-2.94,5.17-8.62,1-10-3.36-1.08-5.9,1.43-7.84,4.62a46.66,46.66,0,0,0-2.69,5.33q.34-6.09,1.09-12.15c.27-2.53.71-5,1.12-7.53A22.85,22.85,0,0,0,129,152.45c5.68-2.22,6.24-7.88,2.31-9.74-3.19-1.51-6,.65-8.38,3.56a59,59,0,0,0-3.91,5.85c.57-2.88,1.11-5.77,1.82-8.61a133.85,133.85,0,0,1,5.22-17.4,136,136,0,0,0-5.76,17.26c-.76,2.69-1.36,5.42-2,8.15a45.24,45.24,0,0,0-1-6c-.89-3.45-2.56-6.36-6.19-6-4.46.46-6.45,5.88-2.17,9.76a20.85,20.85,0,0,0,9,4.42c-.48,2.45-1,4.91-1.33,7.39q-.92,5.88-1.44,11.83A42.42,42.42,0,0,0,113.7,168c-1.32-3.3-3.36-6-6.91-5.13-4.36,1-5.63,6.66-.88,10a20.85,20.85,0,0,0,9,3.34,151.05,151.05,0,0,0-.07,21.38l.19,2.15a34.45,34.45,0,0,0-1.43-3.23c-1.64-3.15-3.94-5.6-7.39-4.41-4.24,1.46-4.93,7.19.12,10a20.6,20.6,0,0,0,9.12,2.42c.07.74.15,1.47.28,2.2.48,3,.84,6.07,1.42,9.06.16.86.34,1.71.51,2.57a25.59,25.59,0,0,0-1.6-2.26c-2.2-2.79-4.92-4.77-8.08-3-3.89,2.24-3.5,8,2,9.8a20.48,20.48,0,0,0,8.8.75c.73,3.34,1.53,6.66,2.47,10,.35,1.26.71,2.51,1.09,3.76a34.21,34.21,0,0,0-2.41-3.56c-2.2-2.79-4.92-4.77-8.08-3-3.89,2.23-3.5,8,2,9.8a20.82,20.82,0,0,0,9.76.6q.8,2.34,1.71,4.66c-2.77,1.78-3.3,6,.36,9.07a20,20,0,0,0,6,3.34c.2.28.4.56.62.84l.1.14a320.26,320.26,0,0,0,.76,32.05q.74,10.1,2.06,20.13c.91,6.71,1.94,13.32,3.39,20.07l6.5-1.55c-1.49-6.3-2.67-12.89-3.69-19.41s-1.81-13.13-2.44-19.72c-.81-8.79-1.3-17.6-1.39-26.42h0c.42.23.77.49,1.24.7a6,6,0,0,0,1.7.58l.59-4.42H141l-.35-.14c-.23-.08-.5-.28-.75-.4a11.42,11.42,0,0,1-1.54-1.15l-.57-.51a22.23,22.23,0,0,0,7.91-1.83c5.58-2.48,5.88-8.15,1.87-9.83-3.26-1.36-6,.92-8.21,3.93-.62.86-1.2,1.77-1.75,2.68,0-1,0-1.94.09-2.91q.17-4.29.48-8.57a22.54,22.54,0,0,0,8.52-1.86c5.57-2.48,5.88-8.15,1.87-9.83-3.26-1.36-6,.92-8.21,3.93-.64.87-1.23,1.8-1.78,2.73.19-2.07.39-4.14.63-6.2.18-1.53.39-3.06.61-4.58.53-2.1,1.12-4.19,1.75-6.27.36-1.14.73-2.27,1.12-3.4a22.86,22.86,0,0,0,7.49,3.3c5.95,1.35,9.59-3,7.38-6.76-1.79-3.05-5.35-2.85-8.93-1.76a44.1,44.1,0,0,0-4.71,1.83,98,98,0,0,1,6.5-13.84,83.54,83.54,0,0,1,4.91-7.56,22.9,22.9,0,0,0,8,3.65c5.95,1.35,9.59-3,7.38-6.76-1.8-3-5.36-2.85-8.93-1.76a36,36,0,0,0-3.75,1.41,65.73,65.73,0,0,1,6.19-6.52,59.26,59.26,0,0,1,15-10,22.76,22.76,0,0,0,6.4,6.89c5,3.47,10,.77,9.37-3.52-.54-3.5-3.92-4.65-7.64-5a37.64,37.64,0,0,0-4.25-.08h.1a92.08,92.08,0,0,1,18.21-5.1,22.93,22.93,0,0,0,5.36,8.19c4.4,4.22,9.77,2.36,9.81-2,0-3.54-3.13-5.21-6.75-6.11a39.46,39.46,0,0,0-4.32-.77c6.58-1,13.25-1.86,19.83-3.19h.14a22.87,22.87,0,0,0,7.47,7.24c5.26,3.09,10,0,9.07-4.21-.79-3.45-4.25-4.34-8-4.38-1.05,0-2.11.06-3.14.14a134.39,134.39,0,0,0,13.16-3.94l.21.41.11-.12a22.72,22.72,0,0,0,7.51,7.31c5.27,3.09,10,0,9.08-4.21-.8-3.45-4.25-4.34-8-4.38a71.32,71.32,0,0,0-8,.67c1.56-.57,3.12-1.16,4.65-1.79a190.2,190.2,0,0,0,20.66-9.92A181.66,181.66,0,0,1,246.21,155a44.2,44.2,0,0,0,4-4.32c2.16-2.83,3.4-6,.86-8.56-3.12-3.22-8.6-1.42-9,4.35a20.75,20.75,0,0,0,1.72,9.36A128.46,128.46,0,0,1,227.5,160l-.53.1a46.07,46.07,0,0,0,4.29-4.65c2.16-2.83,3.41-5.95.87-8.56-3.13-3.22-8.61-1.42-9,4.35a20.54,20.54,0,0,0,1.67,9.25c-6.6,1.13-13.27,1.78-20,2.64l-1,.13a38.65,38.65,0,0,0,4.39-3c2.76-2.25,4.7-5,2.83-8.13-2.28-3.85-8-3.38-9.76,2.14a20.75,20.75,0,0,0-.53,9.43,93,93,0,0,0-18.44,4.66l-.2.08a35.68,35.68,0,0,0,2.78-2.72c2.36-2.66,3.84-5.68,1.5-8.48a5,5,0,0,0-7-.69,5.24,5.24,0,0,0-.77.79,4.48,4.48,0,0,0-1.1-1.91c-2.44-2.57-5.86-1.59-9.1.27a25.76,25.76,0,0,0-2.46,1.59,94.77,94.77,0,0,1,11.68-13.15,22.84,22.84,0,0,0,8.08,4.4c5.85,1.72,9.76-2.41,7.78-6.28-1.6-3.16-5.17-3.19-8.8-2.32A36.13,36.13,0,0,0,181.1,141a89.73,89.73,0,0,1,13.8-9.55,22.72,22.72,0,0,0,7.08,6.65c5.27,3.09,10,0,9.07-4.21-.79-3.45-4.24-4.34-8-4.37a42.47,42.47,0,0,0-5.29.35c2-1,4-2,6.08-3,2.67-1.19,5.38-2.3,8.15-3.34a22.79,22.79,0,0,0,7,6.51c5.27,3.08,10,0,9.07-4.22-.79-3.44-4.24-4.33-8-4.37a23.13,23.13,0,0,0-2.63.1c4.69-1.63,9.44-3.12,14.19-4.66a22.91,22.91,0,0,0,7.3,7c5.27,3.08,10,0,9.08-4.22-.8-3.44-4.25-4.33-8-4.37a42.71,42.71,0,0,0-4.38.25c2-.67,4-1.37,5.92-2.13,1.57-.58,3.09-1.3,4.64-2,.88-.36,1.75-.76,2.61-1.17a22.94,22.94,0,0,0,7.34,7c5.27,3.08,10.05,0,9.08-4.22-.8-3.45-4.25-4.34-8-4.37a49.62,49.62,0,0,0-6.21.46,108.37,108.37,0,0,0,16.9-10.3A76,76,0,0,0,282.55,85.06ZM133,248.51a5.51,5.51,0,0,0-3.91-3.39c-.76-1.71-1.45-3.45-2.11-5.2l1.06-.53a20.83,20.83,0,0,0,4.67,2.34V242l.84.07C133.32,244.23,133.13,246.37,133,248.51Zm14.56-50.43c-.84,1.39-1.63,2.81-2.39,4.24L145,202c.88-3.13,1.86-6.23,2.91-9.31.74-2.15,1.54-4.28,2.37-6.4a22.25,22.25,0,0,0,2.62,3.91,82.65,82.65,0,0,0-5.35,7.88Zm9.51-12.8c.24-.55.47-1.1.68-1.66.1-.28.19-.57.28-.85a10.2,10.2,0,0,0,1.54-.08c-.87.84-1.7,1.71-2.51,2.59Zm14.85-21.68a7.82,7.82,0,0,0,5.18-1.71,20.81,20.81,0,0,0,1,8.14,62.38,62.38,0,0,0-11.1,6.38,4.25,4.25,0,0,0-1.7-2.89c-2.8-2.16-6-.66-9,1.67l-.13.12-.19-.12a4.46,4.46,0,0,0-.63-.28c.09-.17.16-.34.25-.5A120.07,120.07,0,0,1,163,161.67a22.68,22.68,0,0,0,8.93,1.93Z" style="fill: rgb(255, 255, 255); opacity: 0.4; transform-origin: 192.667px 208.3px 0px;" class="animable"></path></g></g></g><path d="M398.49,188.19c-.2-1.46-.28-2.94-.42-4.42s-.19-3-.25-4.43a95.93,95.93,0,0,1,.95-17.68,66.92,66.92,0,0,1,4.73-17,67.08,67.08,0,0,0-4.36,17.06,95,95,0,0,0-.59,17.6c.51,11.72,3.9,23,5.69,34.68a45.93,45.93,0,0,1,1.92-5.58c1.3-2.85,3.2-5.12,6.3-4.24,3.8,1.09,4.68,6.1.37,8.81a18.36,18.36,0,0,1-8.36,2.59c.36,2.46.67,4.92.91,7.4.14,1.83.26,3.66.33,5.5A30.21,30.21,0,0,1,407,225c1.3-2.86,3.21-5.12,6.3-4.24,3.8,1.09,4.68,6.1.37,8.81a18.13,18.13,0,0,1-7.9,2.55,81.92,81.92,0,0,1-1.61,16,32.42,32.42,0,0,1,2.24-3.3c2-2.46,4.35-4.2,7.13-2.59,3.43,2,3.07,7-1.77,8.63a18.3,18.3,0,0,1-8.35.56,86.23,86.23,0,0,1-5.67,16,32.81,32.81,0,0,1,2.6-2.11c2.57-1.8,5.36-2.79,7.58-.46,2.73,2.86.95,7.63-4.15,7.78A18.1,18.1,0,0,1,396,271a110.37,110.37,0,0,1-6.64,11.18c-.39.57-.79,1.12-1.18,1.68a5.42,5.42,0,0,1,0,.57,15.73,15.73,0,0,1,1.58-.86c2.81-1.39,5.72-1.94,7.55.71,2.26,3.25-.23,7.68-5.29,7a18,18,0,0,1-7.14-2.64l-.34.14q-3,3.83-6.18,7.46c-1.61,1.8-3.27,3.56-5,5.3,2.37,2.4,1.42,6.69-3.07,7.86a17.48,17.48,0,0,1-5.72.44q-5.15,4.49-10.6,8.6a3.7,3.7,0,0,1,3.13,2c1.08,1.91.54,3.79-.72,5.52a4.24,4.24,0,0,1-1.27,2.84c2.78-.53,5.54-1.16,8.3-1.86a20.09,20.09,0,0,1,.68-8.23c1.59-5.14,6.53-6,8.41-2.66,1.54,2.71-.18,5.34-2.59,7.59A34.67,34.67,0,0,1,367,326l3-.83c2.56-.7,5-1.6,7.58-2.39.62-.18,1.23-.4,1.84-.64a20,20,0,0,1-.87-8.21c.59-5.35,5.28-7.12,7.76-4.19,2,2.38.83,5.29-1.12,7.95a39.48,39.48,0,0,1-2.78,3.28l2.6-1a134.7,134.7,0,0,0,16.77-8.41A20.26,20.26,0,0,1,400,303c.06-5.37,4.55-7.6,7.31-4.94,2.24,2.16,1.35,5.18-.32,8a41.45,41.45,0,0,1-3,4.31c3.06-1.87,6.07-3.84,9-5.91,1.85-1.26,3.6-2.65,5.38-4a20.12,20.12,0,0,1-3.2-8.55c-.64-5.34,3.52-8.13,6.6-5.85,2.51,1.86,2,5,.73,8a51.19,51.19,0,0,1-2.92,5.47c2-1.64,4-3.26,5.94-5a118.69,118.69,0,0,0,11.34-11.31,120.12,120.12,0,0,1-11,11.67c-1.78,1.71-3.65,3.31-5.51,4.93a40,40,0,0,1,5.11-1.76c3.05-.75,6-.66,7.23,2.31,1.5,3.66-1.89,7.46-6.69,5.75a18.37,18.37,0,0,1-7.23-5c-1.71,1.39-3.41,2.81-5.19,4.11q-4.2,3.15-8.6,6a34.17,34.17,0,0,1,4.46-.89c3.12-.35,6,.13,6.87,3.24,1,3.82-2.83,7.14-7.37,4.83a18.25,18.25,0,0,1-6.37-5.63A133.74,133.74,0,0,1,386,321.78l-1.76.75a27,27,0,0,1,3.11-.24c3.13,0,6,.73,6.51,3.91.62,3.9-3.54,6.83-7.82,4.07a18.16,18.16,0,0,1-5.68-6.08c-.6.25-1.2.5-1.82.7-2.55.88-5.07,1.87-7.64,2.67l-2.2.67c.81.06,1.62.16,2.42.3,3.09.55,5.75,1.83,5.66,5.05-.12,3.95-4.75,6-8.44,2.53A18.09,18.09,0,0,1,364,329.6c-2.9.82-5.82,1.59-8.77,2.23-1.12.25-2.25.49-3.38.72a29.92,29.92,0,0,1,3.77.39c3.09.55,5.76,1.84,5.66,5.05-.11,4-4.75,6.05-8.44,2.53a18.1,18.1,0,0,1-4.53-7.33c-1.44.24-2.88.44-4.34.61-.23,2.89-3.31,5.08-7.19,3.5a17.65,17.65,0,0,1-5.12-3.31,4.65,4.65,0,0,1-.9-.13h-.16c-8.18,4.69-16.62,8.91-25.22,12.76q-8.16,3.63-16.51,6.78c-5.59,2.08-11.16,4-17,5.72l-1.51-5.7c5.51-1.46,11.13-3.29,16.62-5.21s11-4.06,16.35-6.32c7.16-3,14.22-6.32,21.11-9.92h0a10.53,10.53,0,0,1-1.06-.67,5.17,5.17,0,0,1-1.16-1.08l3.19-2.29-.05-.06h0l.08.08.26.21a5.19,5.19,0,0,0,.62.42,10.68,10.68,0,0,0,1.53.72l.63.23a20,20,0,0,1-1.87-6.91c-.39-5.36,3.89-8,6.86-5.55,2.42,2,1.79,5.05.37,8-.41.84-.88,1.67-1.35,2.47l2.22-1.27c2.18-1.28,4.33-2.6,6.46-3.94a20,20,0,0,1-2.1-7.4c-.4-5.36,3.88-8,6.86-5.55,2.42,2,1.78,5.05.36,8-.41.86-.89,1.7-1.37,2.52q2.29-1.51,4.55-3.07c1.11-.78,2.21-1.58,3.31-2.38,1.41-1.29,2.79-2.63,4.14-4,.73-.75,1.46-1.52,2.17-2.29a20,20,0,0,1-5.68-4.45c-3.52-4.06-1.65-8.71,2.18-8.55,3.12.13,4.45,3,5.09,6.21a38.64,38.64,0,0,1,.54,4.42,86.28,86.28,0,0,0,8-10.79,74.13,74.13,0,0,0,3.83-7,20.12,20.12,0,0,1-6.17-4.7c-3.53-4.06-1.65-8.7,2.18-8.54,3.12.13,4.45,3,5.09,6.2.22,1.16.36,2.36.46,3.51a58.74,58.74,0,0,0,2.49-7.53,52,52,0,0,0,1.52-15.81,19.93,19.93,0,0,1-8-2.1c-4.79-2.46-4.78-7.47-1.16-8.75,2.94-1,5.23,1.11,7,3.87a33.88,33.88,0,0,1,1.83,3.28v-.1a80.91,80.91,0,0,0-3.62-16.27,20.16,20.16,0,0,1-8.59-.76c-5.12-1.67-5.9-6.61-2.54-8.45,2.74-1.5,5.35.26,7.56,2.7q1.28,1.44,2.4,3c-1.95-5.53-4.07-11.07-5.78-16.74h0v-.13A20.18,20.18,0,0,1,359,218c-4.59-2.81-4.2-7.81-.5-8.81,3-.82,5.14,1.49,6.72,4.38.44.81.84,1.65,1.2,2.5q-1.5-5.88-2.42-11.87h-.4a.21.21,0,0,1,0-.14,20.09,20.09,0,0,1-8.81-2.79c-4.59-2.81-4.2-7.81-.5-8.81,3-.82,5.14,1.49,6.72,4.38a64.58,64.58,0,0,1,2.82,6.51c-.21-1.45-.39-2.9-.55-4.36a170,170,0,0,1-.89-20.18,163.63,163.63,0,0,0,1.88,23.08A38.12,38.12,0,0,1,366,197c1.3-2.85,3.21-5.12,6.3-4.23,3.8,1.08,4.68,6.09.37,8.8a18.18,18.18,0,0,1-8,2.57,113.27,113.27,0,0,0,3.53,14.4c.05.15.1.3.14.45a42.65,42.65,0,0,1,1.83-5.27c1.3-2.85,3.2-5.12,6.3-4.24,3.8,1.09,4.68,6.1.36,8.81a18.15,18.15,0,0,1-7.89,2.56c1.87,5.59,4.15,11,6.26,16.6.11.27.2.55.31.82a34.6,34.6,0,0,1,.5-4.65c.59-3.09,1.92-5.73,5.13-5.59,3.95.17,6,4.84,2.41,8.48a18.37,18.37,0,0,1-7.11,4.33,83.06,83.06,0,0,1,4.06,16.28v.18a29.64,29.64,0,0,1,1-3.29c1.09-2.94,2.81-5.35,6-4.7a4.38,4.38,0,0,1,3.49,5.12,4.48,4.48,0,0,1-.32,1,4,4,0,0,1,1.95.06c3,.82,3.67,3.89,3.57,7.18a22.25,22.25,0,0,1-.21,2.58,83.89,83.89,0,0,0,5.36-14.56,19.89,19.89,0,0,1-6.78-4.44c-3.78-3.84-2.19-8.59,1.64-8.67,3.12-.07,4.62,2.69,5.46,5.88a28.75,28.75,0,0,1,.64,3.2A80.75,80.75,0,0,0,404,232a20.07,20.07,0,0,1-8.13-2.74c-4.58-2.81-4.19-7.8-.5-8.8,3-.82,5.14,1.49,6.73,4.38a38.78,38.78,0,0,1,1.92,4.26c0-2-.1-4-.21-6-.19-2.58-.45-5.15-.8-7.72a20.13,20.13,0,0,1-8-2.72c-4.58-2.8-4.2-7.8-.5-8.8,3-.82,5.14,1.49,6.73,4.38.37.68.7,1.38,1,2.09-.72-4.46-1.56-8.91-2.36-13.37C399.33,194.05,398.85,191.13,398.49,188.19Zm-19.08,93.94c-.2-.4-.4-.81-.58-1.24-.3,1-.62,2-1,3,.33-.41.66-.83,1-1.21ZM347.92,330v-1a18,18,0,0,1-3.76-2.65l-.2.14-.41-.61q-2.37,1.56-4.78,3.07a4.86,4.86,0,0,1,4.27,1.63C344.65,330.45,346.29,330.26,347.92,330Zm23.95-33.41c-.73,1.23-1.5,2.44-2.3,3.63h.31q3.09-3,6-6.15c1.36-1.46,2.69-3,4-4.5a19.75,19.75,0,0,1-4.13-.41,72.4,72.4,0,0,1-3.88,7.47Zm16.66-33.29a6.89,6.89,0,0,1-.83-4.74,18.51,18.51,0,0,1-6.76,2.59,53.85,53.85,0,0,1-.31,11.35,3.77,3.77,0,0,1,3,.11c2.85,1.28,3,4.41,2.42,7.65v.15l.17.1c.17.12.33.24.48.37.1-.13.2-.26.29-.4a103,103,0,0,0,6.84-11,19.91,19.91,0,0,1-5.3-6.14Z" style="fill: rgb(126, 87, 194); transform-origin: 353.61px 251.89px 0px;" id="elm803wb5gtf" class="animable"></path><path d="M403.5,144.65a67.08,67.08,0,0,0-4.36,17.06,95,95,0,0,0-.59,17.6V180a46.4,46.4,0,0,1,2-5.74c1.3-2.85,3.2-5.12,6.29-4.24,3.81,1.09,4.69,6.1.37,8.81a18.34,18.34,0,0,1-8.55,2.6,120.83,120.83,0,0,0,2.08,14.43,44.47,44.47,0,0,1,1.89-5.49c1.3-2.86,3.21-5.12,6.3-4.24,3.8,1.09,4.68,6.1.37,8.81a18.32,18.32,0,0,1-8.23,2.58c1.09,5.48,2.31,10.95,3.16,16.5a45.93,45.93,0,0,1,1.92-5.58c1.3-2.85,3.2-5.12,6.3-4.24,3.8,1.09,4.68,6.1.37,8.81a18.36,18.36,0,0,1-8.36,2.59c.36,2.46.67,4.92.91,7.4.14,1.83.26,3.66.33,5.5A30.82,30.82,0,0,1,407,225c1.3-2.86,3.21-5.12,6.3-4.24,3.8,1.09,4.68,6.1.37,8.81a18.13,18.13,0,0,1-7.9,2.55,81.92,81.92,0,0,1-1.61,16,32.42,32.42,0,0,1,2.24-3.3c2-2.46,4.35-4.2,7.13-2.59,3.43,2,3.07,7-1.77,8.63a18.3,18.3,0,0,1-8.35.56,86.23,86.23,0,0,1-5.67,16,32.81,32.81,0,0,1,2.6-2.11c2.57-1.8,5.36-2.79,7.58-.46,2.73,2.86.95,7.63-4.15,7.78A18.1,18.1,0,0,1,396,271a110.37,110.37,0,0,1-6.64,11.18c-.39.57-.79,1.12-1.18,1.68a5.42,5.42,0,0,1,0,.57,15.73,15.73,0,0,1,1.58-.86c2.81-1.39,5.72-1.94,7.55.71,2.26,3.25-.23,7.68-5.29,7a18,18,0,0,1-7.14-2.64l-.34.14q-3,3.83-6.18,7.46c-1.61,1.8-3.27,3.56-5,5.3,2.37,2.4,1.42,6.69-3.07,7.86a17.48,17.48,0,0,1-5.72.44q-5.15,4.49-10.6,8.6a3.7,3.7,0,0,1,3.13,2c1.08,1.91.54,3.79-.72,5.52a4.24,4.24,0,0,1-1.27,2.84c2.78-.53,5.54-1.16,8.3-1.86a20.09,20.09,0,0,1,.68-8.23c1.59-5.14,6.53-6,8.41-2.66,1.54,2.71-.18,5.34-2.59,7.59A34.67,34.67,0,0,1,367,326l3-.83c2.56-.7,5-1.6,7.58-2.39.62-.18,1.23-.4,1.84-.64a20,20,0,0,1-.87-8.21c.59-5.35,5.28-7.12,7.76-4.19,2,2.38.83,5.29-1.12,7.95a39.48,39.48,0,0,1-2.78,3.28l2.6-1a134.7,134.7,0,0,0,16.77-8.41A20.26,20.26,0,0,1,400,303c.06-5.37,4.55-7.6,7.31-4.94,2.24,2.16,1.35,5.18-.32,8a41.45,41.45,0,0,1-3,4.31c3.06-1.87,6.07-3.84,9-5.91,1.85-1.26,3.6-2.65,5.38-4a20.12,20.12,0,0,1-3.2-8.55c-.64-5.34,3.52-8.13,6.6-5.85,2.51,1.86,2,5,.73,8a51.19,51.19,0,0,1-2.92,5.47c2-1.64,4-3.26,5.94-5a118.69,118.69,0,0,0,11.34-11.31,120.12,120.12,0,0,1-11,11.67c-1.78,1.71-3.65,3.31-5.51,4.93a40,40,0,0,1,5.11-1.76c3.05-.75,6-.66,7.23,2.31,1.5,3.66-1.89,7.46-6.69,5.75a18.37,18.37,0,0,1-7.23-5c-1.71,1.39-3.41,2.81-5.19,4.11q-4.2,3.15-8.6,6a34.17,34.17,0,0,1,4.46-.89c3.12-.35,6,.13,6.87,3.24,1,3.82-2.83,7.14-7.37,4.83a18.25,18.25,0,0,1-6.37-5.63A133.74,133.74,0,0,1,386,321.78l-1.76.75a27,27,0,0,1,3.11-.24c3.13,0,6,.73,6.51,3.91.62,3.9-3.54,6.83-7.82,4.07a18.16,18.16,0,0,1-5.68-6.08c-.6.25-1.2.5-1.82.7-2.55.88-5.07,1.87-7.64,2.67l-2.2.67c.81.06,1.62.16,2.42.3,3.09.55,5.75,1.83,5.66,5.05-.12,3.95-4.75,6-8.44,2.53A18.09,18.09,0,0,1,364,329.6c-2.9.82-5.82,1.59-8.77,2.23-1.12.25-2.25.49-3.38.72a29.92,29.92,0,0,1,3.77.39c3.09.55,5.76,1.84,5.66,5.05-.11,4-4.75,6.05-8.44,2.53a18.1,18.1,0,0,1-4.53-7.33c-1.44.24-2.88.44-4.34.61-.23,2.89-3.31,5.08-7.19,3.5a17.65,17.65,0,0,1-5.12-3.31,4.65,4.65,0,0,1-.9-.13h-.16c-8.18,4.69-16.62,8.91-25.22,12.76q-8.16,3.63-16.51,6.78c-5.59,2.08-11.16,4-17,5.72l-1.51-5.7c5.51-1.46,11.13-3.29,16.62-5.21s11-4.06,16.35-6.32c7.16-3,14.22-6.32,21.11-9.92h0a10.53,10.53,0,0,1-1.06-.67,5.17,5.17,0,0,1-1.16-1.08l3.19-2.29-.05-.06h0l.08.08.26.21a5.19,5.19,0,0,0,.62.42,10.68,10.68,0,0,0,1.53.72l.63.23a20,20,0,0,1-1.87-6.91c-.39-5.36,3.89-8,6.86-5.55,2.42,2,1.79,5.05.37,8-.41.84-.88,1.67-1.35,2.47l2.22-1.27c2.18-1.28,4.33-2.6,6.46-3.94a20,20,0,0,1-2.1-7.4c-.4-5.36,3.88-8,6.86-5.55,2.42,2,1.78,5.05.36,8-.41.86-.89,1.7-1.37,2.52q2.29-1.51,4.55-3.07c1.11-.78,2.21-1.58,3.31-2.38,1.41-1.29,2.79-2.63,4.14-4,.73-.75,1.46-1.52,2.17-2.29a20,20,0,0,1-5.68-4.45c-3.52-4.06-1.65-8.71,2.18-8.55,3.12.13,4.45,3,5.09,6.21a38.64,38.64,0,0,1,.54,4.42,86.28,86.28,0,0,0,8-10.79,74.13,74.13,0,0,0,3.83-7,20.12,20.12,0,0,1-6.17-4.7c-3.53-4.06-1.65-8.7,2.18-8.54,3.12.13,4.45,3,5.09,6.2.22,1.16.36,2.36.46,3.51a58.74,58.74,0,0,0,2.49-7.53,52,52,0,0,0,1.52-15.81,19.93,19.93,0,0,1-8-2.1c-4.79-2.46-4.78-7.47-1.16-8.75,2.94-1,5.23,1.11,7,3.87a33.88,33.88,0,0,1,1.83,3.28v-.1a80.91,80.91,0,0,0-3.62-16.27,20.16,20.16,0,0,1-8.59-.76c-5.12-1.67-5.9-6.61-2.54-8.45,2.74-1.5,5.35.26,7.56,2.7q1.28,1.44,2.4,3c-1.95-5.53-4.07-11.07-5.78-16.74h0v-.13A20.18,20.18,0,0,1,359,218c-4.59-2.81-4.2-7.81-.5-8.81,3-.82,5.14,1.49,6.72,4.38.44.81.84,1.65,1.2,2.5q-1.5-5.88-2.42-11.87h-.4a.21.21,0,0,1,0-.14,20.09,20.09,0,0,1-8.81-2.79c-4.59-2.81-4.2-7.81-.5-8.81,3-.82,5.14,1.49,6.72,4.38a64.58,64.58,0,0,1,2.82,6.51c-.21-1.45-.39-2.9-.55-4.36a170,170,0,0,1-.89-20.18,163.63,163.63,0,0,0,1.88,23.08A38.12,38.12,0,0,1,366,197c1.3-2.85,3.21-5.12,6.3-4.23,3.8,1.08,4.68,6.09.37,8.8a18.18,18.18,0,0,1-8,2.57,113.27,113.27,0,0,0,3.53,14.4c.05.15.1.3.14.45a42.65,42.65,0,0,1,1.83-5.27c1.3-2.85,3.2-5.12,6.3-4.24,3.8,1.09,4.68,6.1.36,8.81a18.15,18.15,0,0,1-7.89,2.56c1.87,5.59,4.15,11,6.26,16.6.11.27.2.55.31.82a34.6,34.6,0,0,1,.5-4.65c.59-3.09,1.92-5.73,5.13-5.59,3.95.17,6,4.84,2.41,8.48a18.37,18.37,0,0,1-7.11,4.33,83.06,83.06,0,0,1,4.06,16.28v.18a29.64,29.64,0,0,1,1-3.29c1.09-2.94,2.81-5.35,6-4.7a4.38,4.38,0,0,1,3.49,5.12,4.48,4.48,0,0,1-.32,1,4,4,0,0,1,1.95.06c3,.82,3.67,3.89,3.57,7.18a22.25,22.25,0,0,1-.21,2.58,83.89,83.89,0,0,0,5.36-14.56,19.89,19.89,0,0,1-6.78-4.44c-3.78-3.84-2.19-8.59,1.64-8.67,3.12-.07,4.62,2.69,5.46,5.88a28.75,28.75,0,0,1,.64,3.2A80.75,80.75,0,0,0,404,232a20.07,20.07,0,0,1-8.13-2.74c-4.58-2.81-4.19-7.8-.5-8.8,3-.82,5.14,1.49,6.73,4.38a38.78,38.78,0,0,1,1.92,4.26c0-2-.1-4-.21-6-.19-2.58-.45-5.15-.8-7.72a20.13,20.13,0,0,1-8-2.72c-4.58-2.8-4.2-7.8-.5-8.8,3-.82,5.14,1.49,6.73,4.38.37.68.7,1.38,1,2.09-.69-4.33-1.51-8.64-2.29-13a20,20,0,0,1-8.47-2.77c-4.59-2.81-4.2-7.8-.51-8.81,3-.81,5.14,1.5,6.73,4.39a32.75,32.75,0,0,1,1.62,3.51c-.29-1.82-.57-3.65-.8-5.49-.2-1.46-.28-2.94-.42-4.42-.09-.83-.14-1.67-.17-2.51a20.2,20.2,0,0,1-8.54-2.77c-4.59-2.81-4.2-7.81-.5-8.81,3-.82,5.14,1.49,6.72,4.38a43.78,43.78,0,0,1,2.23,5,95.74,95.74,0,0,1,1-17.42A67.18,67.18,0,0,1,403.5,144.65ZM338.74,329a4.86,4.86,0,0,1,4.27,1.63c1.64-.13,3.28-.32,4.91-.54v-1a18,18,0,0,1-3.76-2.65l-.2.14-.41-.61Q341.15,327.44,338.74,329Zm33.13-32.32c-.73,1.23-1.5,2.44-2.3,3.63h.31q3.09-3,6-6.15c1.36-1.46,2.69-3,4-4.5a19.75,19.75,0,0,1-4.13-.41,73,73,0,0,1-3.88,7.38Zm6-12.72c.33-.41.66-.83,1-1.21l.54-.57c-.2-.4-.4-.81-.58-1.24-.3,1-.62,2-1,3Zm10.67-20.57a6.89,6.89,0,0,1-.83-4.74,18.51,18.51,0,0,1-6.76,2.59,53.85,53.85,0,0,1-.31,11.35,3.77,3.77,0,0,1,3,.11c2.85,1.28,3,4.41,2.42,7.65v.15l.17.1c.17.12.33.24.48.37.1-.13.2-.26.29-.4a103,103,0,0,0,6.84-11,20,20,0,0,1-5.31-6.23Z" style="fill: rgb(126, 87, 194); transform-origin: 353.61px 251.885px 0px;" id="elh1ofazmspgw" class="animable"></path><g id="eldkb4dpltrl9"><g style="opacity: 0.7; transform-origin: 353.61px 251.885px 0px;" class="animable"><g id="elsbxi5d523m"><path d="M398.49,188.19c-.2-1.46-.28-2.94-.42-4.42s-.19-3-.25-4.43a95.93,95.93,0,0,1,.95-17.68,66.92,66.92,0,0,1,4.73-17,67.08,67.08,0,0,0-4.36,17.06,95,95,0,0,0-.59,17.6c.51,11.72,3.9,23,5.69,34.68a45.93,45.93,0,0,1,1.92-5.58c1.3-2.85,3.2-5.12,6.3-4.24,3.8,1.09,4.68,6.1.37,8.81a18.36,18.36,0,0,1-8.36,2.59c.36,2.46.67,4.92.91,7.4.14,1.83.26,3.66.33,5.5A30.21,30.21,0,0,1,407,225c1.3-2.86,3.21-5.12,6.3-4.24,3.8,1.09,4.68,6.1.37,8.81a18.13,18.13,0,0,1-7.9,2.55,81.92,81.92,0,0,1-1.61,16,32.42,32.42,0,0,1,2.24-3.3c2-2.46,4.35-4.2,7.13-2.59,3.43,2,3.07,7-1.77,8.63a18.3,18.3,0,0,1-8.35.56,86.23,86.23,0,0,1-5.67,16,32.81,32.81,0,0,1,2.6-2.11c2.57-1.8,5.36-2.79,7.58-.46,2.73,2.86.95,7.63-4.15,7.78A18.1,18.1,0,0,1,396,271a110.37,110.37,0,0,1-6.64,11.18c-.39.57-.79,1.12-1.18,1.68a5.42,5.42,0,0,1,0,.57,15.73,15.73,0,0,1,1.58-.86c2.81-1.39,5.72-1.94,7.55.71,2.26,3.25-.23,7.68-5.29,7a18,18,0,0,1-7.14-2.64l-.34.14q-3,3.83-6.18,7.46c-1.61,1.8-3.27,3.56-5,5.3,2.37,2.4,1.42,6.69-3.07,7.86a17.48,17.48,0,0,1-5.72.44q-5.15,4.49-10.6,8.6a3.7,3.7,0,0,1,3.13,2c1.08,1.91.54,3.79-.72,5.52a4.24,4.24,0,0,1-1.27,2.84c2.78-.53,5.54-1.16,8.3-1.86a20.09,20.09,0,0,1,.68-8.23c1.59-5.14,6.53-6,8.41-2.66,1.54,2.71-.18,5.34-2.59,7.59A34.67,34.67,0,0,1,367,326l3-.83c2.56-.7,5-1.6,7.58-2.39.62-.18,1.23-.4,1.84-.64a20,20,0,0,1-.87-8.21c.59-5.35,5.28-7.12,7.76-4.19,2,2.38.83,5.29-1.12,7.95a39.48,39.48,0,0,1-2.78,3.28l2.6-1a134.7,134.7,0,0,0,16.77-8.41A20.26,20.26,0,0,1,400,303c.06-5.37,4.55-7.6,7.31-4.94,2.24,2.16,1.35,5.18-.32,8a41.45,41.45,0,0,1-3,4.31c3.06-1.87,6.07-3.84,9-5.91,1.85-1.26,3.6-2.65,5.38-4a20.12,20.12,0,0,1-3.2-8.55c-.64-5.34,3.52-8.13,6.6-5.85,2.51,1.86,2,5,.73,8a51.19,51.19,0,0,1-2.92,5.47c2-1.64,4-3.26,5.94-5a118.69,118.69,0,0,0,11.34-11.31,120.12,120.12,0,0,1-11,11.67c-1.78,1.71-3.65,3.31-5.51,4.93a40,40,0,0,1,5.11-1.76c3.05-.75,6-.66,7.23,2.31,1.5,3.66-1.89,7.46-6.69,5.75a18.37,18.37,0,0,1-7.23-5c-1.71,1.39-3.41,2.81-5.19,4.11q-4.2,3.15-8.6,6a34.17,34.17,0,0,1,4.46-.89c3.12-.35,6,.13,6.87,3.24,1,3.82-2.83,7.14-7.37,4.83a18.25,18.25,0,0,1-6.37-5.63A133.74,133.74,0,0,1,386,321.78l-1.76.75a27,27,0,0,1,3.11-.24c3.13,0,6,.73,6.51,3.91.62,3.9-3.54,6.83-7.82,4.07a18.16,18.16,0,0,1-5.68-6.08c-.6.25-1.2.5-1.82.7-2.55.88-5.07,1.87-7.64,2.67l-2.2.67c.81.06,1.62.16,2.42.3,3.09.55,5.75,1.83,5.66,5.05-.12,3.95-4.75,6-8.44,2.53A18.09,18.09,0,0,1,364,329.6c-2.9.82-5.82,1.59-8.77,2.23-1.12.25-2.25.49-3.38.72a29.92,29.92,0,0,1,3.77.39c3.09.55,5.76,1.84,5.66,5.05-.11,4-4.75,6.05-8.44,2.53a18.1,18.1,0,0,1-4.53-7.33c-1.44.24-2.88.44-4.34.61-.23,2.89-3.31,5.08-7.19,3.5a17.65,17.65,0,0,1-5.12-3.31,4.65,4.65,0,0,1-.9-.13h-.16c-8.18,4.69-16.62,8.91-25.22,12.76q-8.16,3.63-16.51,6.78c-5.59,2.08-11.16,4-17,5.72l-1.51-5.7c5.51-1.46,11.13-3.29,16.62-5.21s11-4.06,16.35-6.32c7.16-3,14.22-6.32,21.11-9.92h0a10.53,10.53,0,0,1-1.06-.67,5.17,5.17,0,0,1-1.16-1.08l3.19-2.29-.05-.06h0l.08.08.26.21a5.19,5.19,0,0,0,.62.42,10.68,10.68,0,0,0,1.53.72l.63.23a20,20,0,0,1-1.87-6.91c-.39-5.36,3.89-8,6.86-5.55,2.42,2,1.79,5.05.37,8-.41.84-.88,1.67-1.35,2.47l2.22-1.27c2.18-1.28,4.33-2.6,6.46-3.94a20,20,0,0,1-2.1-7.4c-.4-5.36,3.88-8,6.86-5.55,2.42,2,1.78,5.05.36,8-.41.86-.89,1.7-1.37,2.52q2.29-1.51,4.55-3.07c1.11-.78,2.21-1.58,3.31-2.38,1.41-1.29,2.79-2.63,4.14-4,.73-.75,1.46-1.52,2.17-2.29a20,20,0,0,1-5.68-4.45c-3.52-4.06-1.65-8.71,2.18-8.55,3.12.13,4.45,3,5.09,6.21a38.64,38.64,0,0,1,.54,4.42,86.28,86.28,0,0,0,8-10.79,74.13,74.13,0,0,0,3.83-7,20.12,20.12,0,0,1-6.17-4.7c-3.53-4.06-1.65-8.7,2.18-8.54,3.12.13,4.45,3,5.09,6.2.22,1.16.36,2.36.46,3.51a58.74,58.74,0,0,0,2.49-7.53,52,52,0,0,0,1.52-15.81,19.93,19.93,0,0,1-8-2.1c-4.79-2.46-4.78-7.47-1.16-8.75,2.94-1,5.23,1.11,7,3.87a33.88,33.88,0,0,1,1.83,3.28v-.1a80.91,80.91,0,0,0-3.62-16.27,20.16,20.16,0,0,1-8.59-.76c-5.12-1.67-5.9-6.61-2.54-8.45,2.74-1.5,5.35.26,7.56,2.7q1.28,1.44,2.4,3c-1.95-5.53-4.07-11.07-5.78-16.74h0v-.13A20.18,20.18,0,0,1,359,218c-4.59-2.81-4.2-7.81-.5-8.81,3-.82,5.14,1.49,6.72,4.38.44.81.84,1.65,1.2,2.5q-1.5-5.88-2.42-11.87h-.4a.21.21,0,0,1,0-.14,20.09,20.09,0,0,1-8.81-2.79c-4.59-2.81-4.2-7.81-.5-8.81,3-.82,5.14,1.49,6.72,4.38a64.58,64.58,0,0,1,2.82,6.51c-.21-1.45-.39-2.9-.55-4.36a170,170,0,0,1-.89-20.18,163.63,163.63,0,0,0,1.88,23.08A38.12,38.12,0,0,1,366,197c1.3-2.85,3.21-5.12,6.3-4.23,3.8,1.08,4.68,6.09.37,8.8a18.18,18.18,0,0,1-8,2.57,113.27,113.27,0,0,0,3.53,14.4c.05.15.1.3.14.45a42.65,42.65,0,0,1,1.83-5.27c1.3-2.85,3.2-5.12,6.3-4.24,3.8,1.09,4.68,6.1.36,8.81a18.15,18.15,0,0,1-7.89,2.56c1.87,5.59,4.15,11,6.26,16.6.11.27.2.55.31.82a34.6,34.6,0,0,1,.5-4.65c.59-3.09,1.92-5.73,5.13-5.59,3.95.17,6,4.84,2.41,8.48a18.37,18.37,0,0,1-7.11,4.33,83.06,83.06,0,0,1,4.06,16.28v.18a29.64,29.64,0,0,1,1-3.29c1.09-2.94,2.81-5.35,6-4.7a4.38,4.38,0,0,1,3.49,5.12,4.48,4.48,0,0,1-.32,1,4,4,0,0,1,1.95.06c3,.82,3.67,3.89,3.57,7.18a22.25,22.25,0,0,1-.21,2.58,83.89,83.89,0,0,0,5.36-14.56,19.89,19.89,0,0,1-6.78-4.44c-3.78-3.84-2.19-8.59,1.64-8.67,3.12-.07,4.62,2.69,5.46,5.88a28.75,28.75,0,0,1,.64,3.2A80.75,80.75,0,0,0,404,232a20.07,20.07,0,0,1-8.13-2.74c-4.58-2.81-4.19-7.8-.5-8.8,3-.82,5.14,1.49,6.73,4.38a38.78,38.78,0,0,1,1.92,4.26c0-2-.1-4-.21-6-.19-2.58-.45-5.15-.8-7.72a20.13,20.13,0,0,1-8-2.72c-4.58-2.8-4.2-7.8-.5-8.8,3-.82,5.14,1.49,6.73,4.38.37.68.7,1.38,1,2.09-.72-4.46-1.56-8.91-2.36-13.37C399.33,194.05,398.85,191.13,398.49,188.19Zm-19.08,93.94c-.2-.4-.4-.81-.58-1.24-.3,1-.62,2-1,3,.33-.41.66-.83,1-1.21ZM347.92,330v-1a18,18,0,0,1-3.76-2.65l-.2.14-.41-.61q-2.37,1.56-4.78,3.07a4.86,4.86,0,0,1,4.27,1.63C344.65,330.45,346.29,330.26,347.92,330Zm23.95-33.41c-.73,1.23-1.5,2.44-2.3,3.63h.31q3.09-3,6-6.15c1.36-1.46,2.69-3,4-4.5a19.75,19.75,0,0,1-4.13-.41,72.4,72.4,0,0,1-3.88,7.47Zm16.66-33.29a6.89,6.89,0,0,1-.83-4.74,18.51,18.51,0,0,1-6.76,2.59,53.85,53.85,0,0,1-.31,11.35,3.77,3.77,0,0,1,3,.11c2.85,1.28,3,4.41,2.42,7.65v.15l.17.1c.17.12.33.24.48.37.1-.13.2-.26.29-.4a103,103,0,0,0,6.84-11,19.91,19.91,0,0,1-5.3-6.14Z" style="fill: rgb(255, 255, 255); opacity: 0.4; transform-origin: 353.61px 251.89px 0px;" class="animable"></path></g><g id="elbab8sqi3oi"><path d="M403.5,144.65a67.08,67.08,0,0,0-4.36,17.06,95,95,0,0,0-.59,17.6V180a46.4,46.4,0,0,1,2-5.74c1.3-2.85,3.2-5.12,6.29-4.24,3.81,1.09,4.69,6.1.37,8.81a18.34,18.34,0,0,1-8.55,2.6,120.83,120.83,0,0,0,2.08,14.43,44.47,44.47,0,0,1,1.89-5.49c1.3-2.86,3.21-5.12,6.3-4.24,3.8,1.09,4.68,6.1.37,8.81a18.32,18.32,0,0,1-8.23,2.58c1.09,5.48,2.31,10.95,3.16,16.5a45.93,45.93,0,0,1,1.92-5.58c1.3-2.85,3.2-5.12,6.3-4.24,3.8,1.09,4.68,6.1.37,8.81a18.36,18.36,0,0,1-8.36,2.59c.36,2.46.67,4.92.91,7.4.14,1.83.26,3.66.33,5.5A30.82,30.82,0,0,1,407,225c1.3-2.86,3.21-5.12,6.3-4.24,3.8,1.09,4.68,6.1.37,8.81a18.13,18.13,0,0,1-7.9,2.55,81.92,81.92,0,0,1-1.61,16,32.42,32.42,0,0,1,2.24-3.3c2-2.46,4.35-4.2,7.13-2.59,3.43,2,3.07,7-1.77,8.63a18.3,18.3,0,0,1-8.35.56,86.23,86.23,0,0,1-5.67,16,32.81,32.81,0,0,1,2.6-2.11c2.57-1.8,5.36-2.79,7.58-.46,2.73,2.86.95,7.63-4.15,7.78A18.1,18.1,0,0,1,396,271a110.37,110.37,0,0,1-6.64,11.18c-.39.57-.79,1.12-1.18,1.68a5.42,5.42,0,0,1,0,.57,15.73,15.73,0,0,1,1.58-.86c2.81-1.39,5.72-1.94,7.55.71,2.26,3.25-.23,7.68-5.29,7a18,18,0,0,1-7.14-2.64l-.34.14q-3,3.83-6.18,7.46c-1.61,1.8-3.27,3.56-5,5.3,2.37,2.4,1.42,6.69-3.07,7.86a17.48,17.48,0,0,1-5.72.44q-5.15,4.49-10.6,8.6a3.7,3.7,0,0,1,3.13,2c1.08,1.91.54,3.79-.72,5.52a4.24,4.24,0,0,1-1.27,2.84c2.78-.53,5.54-1.16,8.3-1.86a20.09,20.09,0,0,1,.68-8.23c1.59-5.14,6.53-6,8.41-2.66,1.54,2.71-.18,5.34-2.59,7.59A34.67,34.67,0,0,1,367,326l3-.83c2.56-.7,5-1.6,7.58-2.39.62-.18,1.23-.4,1.84-.64a20,20,0,0,1-.87-8.21c.59-5.35,5.28-7.12,7.76-4.19,2,2.38.83,5.29-1.12,7.95a39.48,39.48,0,0,1-2.78,3.28l2.6-1a134.7,134.7,0,0,0,16.77-8.41A20.26,20.26,0,0,1,400,303c.06-5.37,4.55-7.6,7.31-4.94,2.24,2.16,1.35,5.18-.32,8a41.45,41.45,0,0,1-3,4.31c3.06-1.87,6.07-3.84,9-5.91,1.85-1.26,3.6-2.65,5.38-4a20.12,20.12,0,0,1-3.2-8.55c-.64-5.34,3.52-8.13,6.6-5.85,2.51,1.86,2,5,.73,8a51.19,51.19,0,0,1-2.92,5.47c2-1.64,4-3.26,5.94-5a118.69,118.69,0,0,0,11.34-11.31,120.12,120.12,0,0,1-11,11.67c-1.78,1.71-3.65,3.31-5.51,4.93a40,40,0,0,1,5.11-1.76c3.05-.75,6-.66,7.23,2.31,1.5,3.66-1.89,7.46-6.69,5.75a18.37,18.37,0,0,1-7.23-5c-1.71,1.39-3.41,2.81-5.19,4.11q-4.2,3.15-8.6,6a34.17,34.17,0,0,1,4.46-.89c3.12-.35,6,.13,6.87,3.24,1,3.82-2.83,7.14-7.37,4.83a18.25,18.25,0,0,1-6.37-5.63A133.74,133.74,0,0,1,386,321.78l-1.76.75a27,27,0,0,1,3.11-.24c3.13,0,6,.73,6.51,3.91.62,3.9-3.54,6.83-7.82,4.07a18.16,18.16,0,0,1-5.68-6.08c-.6.25-1.2.5-1.82.7-2.55.88-5.07,1.87-7.64,2.67l-2.2.67c.81.06,1.62.16,2.42.3,3.09.55,5.75,1.83,5.66,5.05-.12,3.95-4.75,6-8.44,2.53A18.09,18.09,0,0,1,364,329.6c-2.9.82-5.82,1.59-8.77,2.23-1.12.25-2.25.49-3.38.72a29.92,29.92,0,0,1,3.77.39c3.09.55,5.76,1.84,5.66,5.05-.11,4-4.75,6.05-8.44,2.53a18.1,18.1,0,0,1-4.53-7.33c-1.44.24-2.88.44-4.34.61-.23,2.89-3.31,5.08-7.19,3.5a17.65,17.65,0,0,1-5.12-3.31,4.65,4.65,0,0,1-.9-.13h-.16c-8.18,4.69-16.62,8.91-25.22,12.76q-8.16,3.63-16.51,6.78c-5.59,2.08-11.16,4-17,5.72l-1.51-5.7c5.51-1.46,11.13-3.29,16.62-5.21s11-4.06,16.35-6.32c7.16-3,14.22-6.32,21.11-9.92h0a10.53,10.53,0,0,1-1.06-.67,5.17,5.17,0,0,1-1.16-1.08l3.19-2.29-.05-.06h0l.08.08.26.21a5.19,5.19,0,0,0,.62.42,10.68,10.68,0,0,0,1.53.72l.63.23a20,20,0,0,1-1.87-6.91c-.39-5.36,3.89-8,6.86-5.55,2.42,2,1.79,5.05.37,8-.41.84-.88,1.67-1.35,2.47l2.22-1.27c2.18-1.28,4.33-2.6,6.46-3.94a20,20,0,0,1-2.1-7.4c-.4-5.36,3.88-8,6.86-5.55,2.42,2,1.78,5.05.36,8-.41.86-.89,1.7-1.37,2.52q2.29-1.51,4.55-3.07c1.11-.78,2.21-1.58,3.31-2.38,1.41-1.29,2.79-2.63,4.14-4,.73-.75,1.46-1.52,2.17-2.29a20,20,0,0,1-5.68-4.45c-3.52-4.06-1.65-8.71,2.18-8.55,3.12.13,4.45,3,5.09,6.21a38.64,38.64,0,0,1,.54,4.42,86.28,86.28,0,0,0,8-10.79,74.13,74.13,0,0,0,3.83-7,20.12,20.12,0,0,1-6.17-4.7c-3.53-4.06-1.65-8.7,2.18-8.54,3.12.13,4.45,3,5.09,6.2.22,1.16.36,2.36.46,3.51a58.74,58.74,0,0,0,2.49-7.53,52,52,0,0,0,1.52-15.81,19.93,19.93,0,0,1-8-2.1c-4.79-2.46-4.78-7.47-1.16-8.75,2.94-1,5.23,1.11,7,3.87a33.88,33.88,0,0,1,1.83,3.28v-.1a80.91,80.91,0,0,0-3.62-16.27,20.16,20.16,0,0,1-8.59-.76c-5.12-1.67-5.9-6.61-2.54-8.45,2.74-1.5,5.35.26,7.56,2.7q1.28,1.44,2.4,3c-1.95-5.53-4.07-11.07-5.78-16.74h0v-.13A20.18,20.18,0,0,1,359,218c-4.59-2.81-4.2-7.81-.5-8.81,3-.82,5.14,1.49,6.72,4.38.44.81.84,1.65,1.2,2.5q-1.5-5.88-2.42-11.87h-.4a.21.21,0,0,1,0-.14,20.09,20.09,0,0,1-8.81-2.79c-4.59-2.81-4.2-7.81-.5-8.81,3-.82,5.14,1.49,6.72,4.38a64.58,64.58,0,0,1,2.82,6.51c-.21-1.45-.39-2.9-.55-4.36a170,170,0,0,1-.89-20.18,163.63,163.63,0,0,0,1.88,23.08A38.12,38.12,0,0,1,366,197c1.3-2.85,3.21-5.12,6.3-4.23,3.8,1.08,4.68,6.09.37,8.8a18.18,18.18,0,0,1-8,2.57,113.27,113.27,0,0,0,3.53,14.4c.05.15.1.3.14.45a42.65,42.65,0,0,1,1.83-5.27c1.3-2.85,3.2-5.12,6.3-4.24,3.8,1.09,4.68,6.1.36,8.81a18.15,18.15,0,0,1-7.89,2.56c1.87,5.59,4.15,11,6.26,16.6.11.27.2.55.31.82a34.6,34.6,0,0,1,.5-4.65c.59-3.09,1.92-5.73,5.13-5.59,3.95.17,6,4.84,2.41,8.48a18.37,18.37,0,0,1-7.11,4.33,83.06,83.06,0,0,1,4.06,16.28v.18a29.64,29.64,0,0,1,1-3.29c1.09-2.94,2.81-5.35,6-4.7a4.38,4.38,0,0,1,3.49,5.12,4.48,4.48,0,0,1-.32,1,4,4,0,0,1,1.95.06c3,.82,3.67,3.89,3.57,7.18a22.25,22.25,0,0,1-.21,2.58,83.89,83.89,0,0,0,5.36-14.56,19.89,19.89,0,0,1-6.78-4.44c-3.78-3.84-2.19-8.59,1.64-8.67,3.12-.07,4.62,2.69,5.46,5.88a28.75,28.75,0,0,1,.64,3.2A80.75,80.75,0,0,0,404,232a20.07,20.07,0,0,1-8.13-2.74c-4.58-2.81-4.19-7.8-.5-8.8,3-.82,5.14,1.49,6.73,4.38a38.78,38.78,0,0,1,1.92,4.26c0-2-.1-4-.21-6-.19-2.58-.45-5.15-.8-7.72a20.13,20.13,0,0,1-8-2.72c-4.58-2.8-4.2-7.8-.5-8.8,3-.82,5.14,1.49,6.73,4.38.37.68.7,1.38,1,2.09-.69-4.33-1.51-8.64-2.29-13a20,20,0,0,1-8.47-2.77c-4.59-2.81-4.2-7.8-.51-8.81,3-.81,5.14,1.5,6.73,4.39a32.75,32.75,0,0,1,1.62,3.51c-.29-1.82-.57-3.65-.8-5.49-.2-1.46-.28-2.94-.42-4.42-.09-.83-.14-1.67-.17-2.51a20.2,20.2,0,0,1-8.54-2.77c-4.59-2.81-4.2-7.81-.5-8.81,3-.82,5.14,1.49,6.72,4.38a43.78,43.78,0,0,1,2.23,5,95.74,95.74,0,0,1,1-17.42A67.18,67.18,0,0,1,403.5,144.65ZM338.74,329a4.86,4.86,0,0,1,4.27,1.63c1.64-.13,3.28-.32,4.91-.54v-1a18,18,0,0,1-3.76-2.65l-.2.14-.41-.61Q341.15,327.44,338.74,329Zm33.13-32.32c-.73,1.23-1.5,2.44-2.3,3.63h.31q3.09-3,6-6.15c1.36-1.46,2.69-3,4-4.5a19.75,19.75,0,0,1-4.13-.41,73,73,0,0,1-3.88,7.38Zm6-12.72c.33-.41.66-.83,1-1.21l.54-.57c-.2-.4-.4-.81-.58-1.24-.3,1-.62,2-1,3Zm10.67-20.57a6.89,6.89,0,0,1-.83-4.74,18.51,18.51,0,0,1-6.76,2.59,53.85,53.85,0,0,1-.31,11.35,3.77,3.77,0,0,1,3,.11c2.85,1.28,3,4.41,2.42,7.65v.15l.17.1c.17.12.33.24.48.37.1-.13.2-.26.29-.4a103,103,0,0,0,6.84-11,20,20,0,0,1-5.31-6.23Z" style="fill: rgb(255, 255, 255); opacity: 0.4; transform-origin: 353.61px 251.885px 0px;" class="animable"></path></g></g></g></g><g id="freepik--credit-card--inject-7" style="transform-origin: 216.954px 255.375px 0px;" class="animable"><path d="M281.88,319.12,133.66,292a8.11,8.11,0,0,1-6.53-9.45h0l15.43-84.39a8.13,8.13,0,0,1,9.46-6.53l148.22,27.12a8.13,8.13,0,0,1,6.54,9.45l-15.44,84.39A8.13,8.13,0,0,1,281.88,319.12Z" style="fill: rgb(46, 53, 58); stroke: rgb(46, 53, 58); stroke-linecap: round; stroke-linejoin: round; transform-origin: 216.954px 255.375px 0px;" id="elyooddqekwm" class="animable"></path><path d="M279.53,215c-10.56,5.85-23,10.7-35.89,11.51-35.51,2.23-50.59-13.81-90.13-8.69A100,100,0,0,0,138.4,221l-6.62,36.18a91.8,91.8,0,0,1,36.3-16.48c34.91-7.32,49.55,5.63,81.08,1.13,18.71-2.67,35.44-14.66,46-24Z" style="fill: rgb(126, 87, 194); stroke: rgb(46, 53, 58); stroke-linecap: round; stroke-linejoin: round; transform-origin: 213.47px 236.09px 0px;" id="elb87a3wvszb" class="animable"></path><path d="M140.17,211.26c1.39-.36,2.8-.71,4.26-1,34.91-7.32,49.55,5.63,81.08,1.12a64,64,0,0,0,14-3.73l-86.6-15.85a9.06,9.06,0,0,0-10.53,7.28Z" style="fill: rgb(126, 87, 194); stroke: rgb(46, 53, 58); stroke-linecap: round; stroke-linejoin: round; transform-origin: 189.84px 202.006px 0px;" id="el2kp25ib4bvt" class="animable"></path><g id="elmhq9p7zu22j"><rect x="152.41" y="217.72" width="17.2" height="17.8" rx="3.06" style="fill: rgb(255, 255, 255); stroke: rgb(46, 53, 58); stroke-linecap: round; stroke-linejoin: round; stroke-width: 0.996394px; transform-origin: 161.01px 226.62px 0px; transform: rotate(-79.59deg);" class="animable"></rect></g><g id="ela3ayvaenn8"><rect x="158.91" y="224.68" width="5.35" height="5.54" rx="1.5" style="fill: rgb(255, 255, 255); stroke: rgb(46, 53, 58); stroke-linecap: round; stroke-linejoin: round; transform-origin: 161.585px 227.45px 0px; transform: rotate(-79.63deg);" class="animable"></rect></g><path d="M154,219.25l5.15.95a1.83,1.83,0,0,1,1.48,2.12v0l-.39,2.14" style="fill: none; stroke: rgb(46, 53, 58); stroke-linecap: round; stroke-linejoin: round; transform-origin: 157.329px 221.855px 0px;" id="el6m2ynfto34k" class="animable"></path><path d="M171.6,222.47l-5.08-.93a1.84,1.84,0,0,0-2.15,1.47h0l-.39,2.14" style="fill: none; stroke: rgb(46, 53, 58); stroke-linecap: round; stroke-linejoin: round; transform-origin: 167.79px 223.329px 0px;" id="el3g1lq6syboe" class="animable"></path><path d="M151.6,232.58l5.14.94a1.84,1.84,0,0,0,2.15-1.49l.39-2.14" style="fill: none; stroke: rgb(46, 53, 58); stroke-linecap: round; stroke-linejoin: round; transform-origin: 155.44px 231.721px 0px;" id="ellvknq0lz9h" class="animable"></path><path d="M169.16,235.79l-5.08-.93a1.84,1.84,0,0,1-1.48-2.14h0l.39-2.14" style="fill: none; stroke: rgb(46, 53, 58); stroke-linecap: round; stroke-linejoin: round; transform-origin: 165.865px 233.185px 0px;" id="el8qa7g164drx" class="animable"></path><line x1="152.78" y1="226.26" x2="158.81" y2="227.36" style="fill: none; stroke: rgb(46, 53, 58); stroke-linecap: round; stroke-linejoin: round; transform-origin: 155.795px 226.81px 0px;" id="ell311dzfoitf" class="animable"></line><line x1="164.11" y1="228.33" x2="170.14" y2="229.43" style="fill: none; stroke: rgb(46, 53, 58); stroke-linecap: round; stroke-linejoin: round; transform-origin: 167.125px 228.88px 0px;" id="el37qm48g88oh" class="animable"></line><path d="M267.05,299.25a8.36,8.36,0,1,1-6.73-9.72h0A8.36,8.36,0,0,1,267.05,299.25Z" style="fill: rgb(255, 255, 255); stroke: rgb(46, 53, 58); stroke-linecap: round; stroke-linejoin: round; transform-origin: 258.825px 297.755px 0px;" id="el7r1snviglao" class="animable"></path><path d="M278.21,301.3a8.35,8.35,0,1,1-6.71-9.72A8.35,8.35,0,0,1,278.21,301.3Z" style="fill: rgb(126, 87, 194); stroke: rgb(46, 53, 58); stroke-linecap: round; stroke-linejoin: round; transform-origin: 269.996px 299.794px 0px;" id="elsyd8dcijyvm" class="animable"></path></g><g id="freepik--Character--inject-7" style="transform-origin: 334.873px 274.204px 0px;" class="animable"><path d="M266,207s29.8-4.89,33.74-4.66S337,211.09,337,211.09a19.61,19.61,0,0,1,.7,6.1c-.18,3.16-3.64,8.23-3.64,8.23L299.83,210l-31.41,1.46Z" style="fill: rgb(255, 255, 255); stroke: rgb(46, 53, 58); stroke-linecap: round; stroke-linejoin: round; transform-origin: 301.859px 213.876px 0px;" id="el8npixaubj36" class="animable"></path><g id="elvn42i5a0k8"><path d="M323.55,207.72l9.07,10-5.7-2.28,4.11,4.33-4.34-1.83-2.05,1.6-12.53-8.21,3.19,3.42s-15.27-8-16-8-29.86,4.33-29.86,4.33l2.57.21L299.83,210,334,225.42s3.46-5.07,3.64-8.23a20.26,20.26,0,0,0-.7-6.1S330.84,209.52,323.55,207.72Z" style="fill: rgb(126, 87, 194); opacity: 0.5; isolation: isolate; transform-origin: 303.547px 216.085px 0px;" class="animable"></path></g><path d="M268.42,211.46s-7.36,2.55-8.51,2.44c-.85-.08-4.88-.27-7-.36-.71,0-1.4,0-1.44-.72h0a1.37,1.37,0,0,1,1.13-1.41l2.7-.47s-9.37-1.34-10.08-2.45,3.76-.61,4.9-.81c1.76-.3,10.65-.19,10.65-.19L266,207Z" style="fill: rgb(255, 255, 255); stroke: rgb(46, 53, 58); stroke-linecap: round; stroke-linejoin: round; transform-origin: 256.782px 210.452px 0px;" id="el71fb686wsiq" class="animable"></path><path d="M311.27,185.76l-.62,10.64,3.42.54s3.1,11.89,4.09,12.63S327,206,327,206l4.83,5.79,6.46-4.45L334.81,202s2.2-20.2,1.43-24.72-3.46-5.71-9.64-6.07A27.21,27.21,0,0,0,315.48,173s1.93-3.68-4.63-3.37-9,7.4-7.86,10.91S311.27,185.76,311.27,185.76Z" style="fill: rgb(255, 255, 255); stroke: rgb(46, 53, 58); stroke-linecap: round; stroke-linejoin: round; transform-origin: 320.505px 190.701px 0px;" id="elfmrs3h2reet" class="animable"></path><g id="elcrjwt1ze3f"><path d="M334.79,201.93s2.2-20.2,1.43-24.72-3.46-5.71-9.64-6.07a27.21,27.21,0,0,0-11.12,1.77,2.18,2.18,0,0,0-.24-2.38,30,30,0,0,0-4.48,1.12c-2.12.74-4.67,1.58-6.8,2.26a9.17,9.17,0,0,0-1.13,6L305,183a21.14,21.14,0,0,0,6.26,2.81l-.12,2.05a25.75,25.75,0,0,0,3.92.48c2.28,0,5.7-1.82,5.7-1.82s-2,3.19.45,5a8.9,8.9,0,0,0,4.79,1.83s1.6,5.47,1.6,7.29c0,1.42-6.53,6.74-9.39,9,1.17.59,8.76-3.64,8.76-3.64l4.83,5.79,6.46-4.45Z" style="fill: rgb(126, 87, 194); opacity: 0.5; isolation: isolate; transform-origin: 320.481px 191.16px 0px;" class="animable"></path></g><path d="M336.22,177.21c-.78-4.52-3.46-5.71-9.64-6.07a27.21,27.21,0,0,0-11.12,1.77s1.93-3.68-4.63-3.37-9,7.4-7.86,10.91,8.3,5.31,8.3,5.31,8.62-.19,12.92-3c0,0-3,4-2.44,6.41a2.46,2.46,0,0,0,2.89,1.92l.11,0,.83,3.49s2,1.15,2.41.14.33-5.83,3-4,2.79,5.33,1.36,6.28-2.42.2-1.51,2.32,4,2.65,4,2.65S337,181.73,336.22,177.21Z" style="fill: rgb(46, 53, 58); stroke: rgb(46, 53, 58); stroke-linecap: round; stroke-linejoin: round; transform-origin: 319.545px 185.746px 0px;" id="eladj8bzbrc4q" class="animable"></path><path d="M317,176.18s-3-3-4.68.82,1.65,6.05,9.08,4.95,12.38-3.3,13.21-3.3" style="fill: none; stroke: rgb(255, 255, 255); stroke-linecap: round; stroke-linejoin: round; stroke-width: 0.5px; transform-origin: 323.252px 178.645px 0px;" id="elqmkvynmjwu" class="animable"></path><path d="M322.22,185A33.29,33.29,0,0,0,336,183.9" style="fill: none; stroke: rgb(255, 255, 255); stroke-linecap: round; stroke-linejoin: round; stroke-width: 0.5px; transform-origin: 329.11px 184.589px 0px;" id="eluk2za5658" class="animable"></path><path d="M316.6,191.16c.1.67-.07,1.26-.38,1.3s-.66-.46-.76-1.13.07-1.26.39-1.31S316.5,190.48,316.6,191.16Z" style="fill: rgb(46, 53, 58); transform-origin: 316.03px 191.239px 0px;" id="elq92nqc3y83q" class="animable"></path><path d="M318,202.42s2.8,0,3.92-2.09" style="fill: none; stroke: rgb(46, 53, 58); stroke-linecap: round; stroke-linejoin: round; transform-origin: 319.96px 201.375px 0px;" id="el5fhra164lym" class="animable"></path><path d="M314.39,186.85a2.57,2.57,0,0,1,2.78.33" style="fill: none; stroke: rgb(46, 53, 58); stroke-linecap: round; stroke-linejoin: round; transform-origin: 315.78px 186.883px 0px;" id="elzwg4zphctn" class="animable"></path><path d="M350.58,272l1.37,4s-23.66,15.83-29.9,22.13S310,310.35,310.58,313.52s7.79,48.23,7.79,48.23l9-.65s.58-43.83,1.82-44.93,37.08-24.89,37.08-24.89,3.17-.6,4.68.28,9.89,32.29,12.14,34S414,361.92,414,361.92l7.5-1.92s-25.2-45.45-25.14-46.62c0-.67-5.39-25.18-10.94-41-4.17-11.85-8.86-16.18-8.86-16.18Z" style="fill: rgb(46, 53, 58); stroke: rgb(46, 53, 58); stroke-linecap: round; stroke-linejoin: round; transform-origin: 366.02px 309.06px 0px;" id="el8zryx7cviwl" class="animable"></path><path d="M375.42,260.68s4.71,8.45,6.77,11.54,2.36,10.55,2.36,10.55,10.23,28.86,11.07,33.74,24.26,43.43,24.26,43.43" style="fill: none; stroke: rgb(255, 255, 255); stroke-linecap: round; stroke-linejoin: round; stroke-width: 0.5px; transform-origin: 397.65px 310.31px 0px;" id="elu5u1r8ldev" class="animable"></path><polyline points="353.16 285.42 366.31 291.29 356.98 290.11" style="fill: none; stroke: rgb(255, 255, 255); stroke-linecap: round; stroke-linejoin: round; stroke-width: 0.5px; transform-origin: 359.735px 288.355px 0px;" id="elbiueawwkj4w" class="animable"></polyline><path d="M335.24,306l-9.5,9.86s-8.18-.1-5.65,1.16a32.82,32.82,0,0,1,5.37,3.66v39.05" style="fill: none; stroke: rgb(255, 255, 255); stroke-linecap: round; stroke-linejoin: round; stroke-width: 0.5px; transform-origin: 327.422px 332.865px 0px;" id="elbaiqe2l398n" class="animable"></path><path d="M353.47,273.54a35,35,0,0,0,23.19-15" style="fill: none; stroke: rgb(255, 255, 255); stroke-linecap: round; stroke-linejoin: round; stroke-width: 0.5px; transform-origin: 365.065px 266.04px 0px;" id="el26xx7xfijqz" class="animable"></path><line x1="360.82" y1="268.76" x2="362.13" y2="271.81" style="fill: none; stroke: rgb(255, 255, 255); stroke-linecap: round; stroke-linejoin: round; stroke-width: 0.5px; transform-origin: 361.475px 270.285px 0px;" id="elj9i6u0v4qe8" class="animable"></line><line x1="368.94" y1="263.28" x2="370.65" y2="265.98" style="fill: none; stroke: rgb(255, 255, 255); stroke-linecap: round; stroke-linejoin: round; stroke-width: 0.5px; transform-origin: 369.795px 264.63px 0px;" id="ell45i68uukit" class="animable"></line><path d="M330.48,213.23s-1.19,7,1.28,18.48S350.58,272,350.58,272l2.62-.56a37,37,0,0,0,19.25-10.81l4.11-4.36s-14.84-27.89-20.5-38.4a20.33,20.33,0,0,0-17.76-11.21C335.57,206.48,330.18,211.65,330.48,213.23Z" style="fill: rgb(255, 255, 255); stroke: rgb(46, 53, 58); stroke-linecap: round; stroke-linejoin: round; transform-origin: 353.377px 239.328px 0px;" id="elmzchwapoz1" class="animable"></path><g id="el8ln5mdmktd"><g style="opacity: 0.5; transform-origin: 359.255px 236.83px 0px;" class="animable"><path d="M356.06,217.84A20.06,20.06,0,0,0,342,207.09c1.79.88,7.3,3.93,9.76,9.24,3,6.38-.91,15.95-.91,15.95l-.05-1.36c-2,7.31-5.36,18.35-7.75,25.45l3-7.67,1.37-5,10,3.88-5.25-5.25s10.95,6.61,13.91,9.35a8.41,8.41,0,0,1,2.28,10,21,21,0,0,1-3.29,4.89,37.41,37.41,0,0,0,7.33-6l4.11-4.36S361.72,228.35,356.06,217.84Z" style="fill: rgb(126, 87, 194); transform-origin: 359.255px 236.83px 0px;" id="elepocfotlztd" class="animable"></path></g></g><path d="M348.23,236.49s6.14-5.81,9.2-8.53" style="fill: none; stroke: rgb(46, 53, 58); stroke-linecap: round; stroke-linejoin: round; stroke-width: 0.5px; transform-origin: 352.83px 232.225px 0px;" id="elbjm758xxxso" class="animable"></path><path d="M357.72,235.88c.63-.16,1.24-.34,1.82-.55" style="fill: none; stroke: rgb(46, 53, 58); stroke-linecap: round; stroke-linejoin: round; stroke-width: 0.5px; transform-origin: 358.63px 235.605px 0px;" id="elycj6kv3a65" class="animable"></path><path d="M346.4,236.75a49.23,49.23,0,0,0,9-.41" style="fill: none; stroke: rgb(46, 53, 58); stroke-linecap: round; stroke-linejoin: round; stroke-width: 0.5px; transform-origin: 350.9px 236.571px 0px;" id="elrb2t2fmqq7" class="animable"></path><polygon points="338.88 203.53 327.04 211.86 330.32 215.96 341.43 206.81 338.88 203.53" style="fill: rgb(255, 255, 255); stroke: rgb(46, 53, 58); stroke-linecap: round; stroke-linejoin: round; transform-origin: 334.235px 209.745px 0px;" id="elbdq3axnm10s" class="animable"></polygon><path d="M352.53,223.84c-.42,4-10.81,38.34-12.15,39.36s-44.13,12.36-44.13,12.36l-2.32-3.44,36.75-18.26,7.92-35.76" style="fill: rgb(255, 255, 255); stroke: rgb(46, 53, 58); stroke-linecap: round; stroke-linejoin: round; transform-origin: 323.23px 246.83px 0px;" id="elxkeiyikyidq" class="animable"></path><g id="elmgp3ezcqeo"><path d="M350.81,230.92c-.1-2.7-.39-8.35-1.09-7.3-.91,1.37-2.74,12.31-5.7,20.29s-8.66,11.4-7.52,11.62,2.05,3.88,2.05,3.88l-41.35,15.9c2.31-.61,8.62-2.29,15.74-4.22l27.44-7.89,2.68-6.83C345.45,249.27,348.8,238.23,350.81,230.92Z" style="fill: rgb(126, 87, 194); opacity: 0.5; isolation: isolate; transform-origin: 324.005px 249.401px 0px;" class="animable"></path></g><path d="M296.45,275.8l-2.52-3.68-12.28-2.42a.77.77,0,0,0-.87.67.13.13,0,0,0,0,.06.76.76,0,0,0,.48.76l4.5,1.87-3.24,2.65c-.93.72-4.94,3.13-5.24,4.05-.59,1.8,1.83.32,2.42.11,1.31-.48,2.14-1.07,4.34-1.93.43.59-4.55,3.37-5.12,3.82-.24.19-.63.42-.64.78-.08,1.38,2.23,0,2.77-.27,1.55-.65,3.08-1.36,4.63-2-1.08.81-2.9,1.72-4,2.53a11.93,11.93,0,0,0-1.44,1c-.56.57-.09,1.2.73.95a16.2,16.2,0,0,0,2.55-1.32c1.25-.67,1.94-1.28,3.18-2-.9.7-1.34,1.22-2.25,1.92-.35.27-1.15.74-1.31,1.17-.58,1.5,2.7-.57,3.07-.84,1.29-.92,2.8-1.68,4-2.66.17-.14,2-1.95,2-1.93Z" style="fill: rgb(255, 255, 255); stroke: rgb(46, 53, 58); stroke-linecap: round; stroke-linejoin: round; stroke-width: 0.5px; transform-origin: 286.819px 277.377px 0px;" id="elos3lkf2gqbf" class="animable"></path><line x1="330.11" y1="223.47" x2="323.44" y2="213.67" style="fill: none; stroke: rgb(46, 53, 58); stroke-linecap: round; stroke-linejoin: round; stroke-width: 0.5px; transform-origin: 326.775px 218.57px 0px;" id="ell3rtirhjwgk" class="animable"></line><line x1="329.42" y1="223.15" x2="321.99" y2="216.91" style="fill: none; stroke: rgb(46, 53, 58); stroke-linecap: round; stroke-linejoin: round; stroke-width: 0.5px; transform-origin: 325.705px 220.03px 0px;" id="elot2jky29t0p" class="animable"></line><path d="M318.37,361.75l-.67.72-4.71,5s-10.6,3.83-10.68,5.31,11.32.66,14.8.36,7.61-3.51,7.61-3.51,4.4.75,5.1-2.67-2.41-5.88-2.41-5.88Z" style="fill: rgb(255, 255, 255); stroke: rgb(46, 53, 58); stroke-linecap: round; stroke-linejoin: round; transform-origin: 316.116px 367.359px 0px;" id="eljn6jzdbsmj" class="animable"></path><path d="M414,361.92a82.08,82.08,0,0,0-3.53,8.78c-1.21,3.88-5.24,5.13-3.38,7.21s6.37.86,10.1-3.86,7.3-6.5,7.41-8.47-3.1-5.58-3.1-5.58Z" style="fill: rgb(255, 255, 255); stroke: rgb(46, 53, 58); stroke-linecap: round; stroke-linejoin: round; transform-origin: 415.605px 369.444px 0px;" id="elzvb4y329bhr" class="animable"></path><path d="M407,377.91a12.37,12.37,0,0,0,7.22-2.59c3.15-2.63,5.78-7.88,7.62-9.2l1.84-1.31" style="fill: none; stroke: rgb(46, 53, 58); stroke-linecap: round; stroke-linejoin: round; stroke-width: 0.5px; transform-origin: 415.34px 371.36px 0px;" id="el32v6x7qalp9" class="animable"></path><path d="M303.42,372.43s10.25-1.05,14.45-1.58,5.51-3.41,6.83-3.68,2.82-.8,4.2-1.31" style="fill: none; stroke: rgb(46, 53, 58); stroke-linecap: round; stroke-linejoin: round; stroke-width: 0.5px; transform-origin: 316.16px 369.145px 0px;" id="el4sp4bu1417e" class="animable"></path></g><g id="freepik--Device--inject-7" style="transform-origin: 215.663px 348.06px 0px;" class="animable"><path d="M71.6,319.93s-10.07,11.55-8.14,27.57,18.91,24.38,18.91,24.38l20.78-40.69s-10.47-10.33-3.1-23.51C100.05,307.68,82.6,309.85,71.6,319.93Z" style="fill: rgb(255, 255, 255); stroke: rgb(46, 53, 58); stroke-linecap: round; stroke-linejoin: round; transform-origin: 83.1821px 339.78px 0px;" id="elp0q6livzd0m" class="animable"></path><g id="el7y8xj7jhj4m"><path d="M71.6,319.93s-10.07,11.55-8.14,27.57,18.91,24.38,18.91,24.38l20.78-40.69s-10.47-10.33-3.1-23.51C100.05,307.68,82.6,309.85,71.6,319.93Z" style="fill: rgb(126, 87, 194); opacity: 0.5; isolation: isolate; transform-origin: 83.1821px 339.78px 0px;" class="animable"></path></g><path d="M161.36,289.88s-13.08.4-17.47,2.52-32.79,22.34-49,45.9c-5.52,8-7.52,12.42-8.25,14.57A35.4,35.4,0,0,1,85,357c-1.81,3.93-4.81,12-3.7,20.4,1.55,11.76,8.42,23.22,34.83,28.09s36.41-14.8,37.06-23.21c0,0,64.16,4.63,104,9.14s53.07,2,66.41,7.27,16.6,8.7,22.24,8.78,21.85-18,22.25-23.3-5-12.73-6.72-13.21-22.6-31.37-22.6-31.37-.94-6.07-10.07-11-54.6-18.7-79.45-25.56S174.06,289.81,161.36,289.88Z" style="fill: rgb(255, 255, 255); stroke: rgb(46, 53, 58); stroke-linecap: round; stroke-linejoin: round; transform-origin: 224.586px 348.675px 0px;" id="eloe233t8gu3" class="animable"></path><g id="elhj7unyhqy4h"><path d="M365.47,375.83A86.67,86.67,0,0,0,348,369.24l-75.18-20.6-99.13-17.27s-41.22-6.68-59.6,2.23c-13.07,6.34-26.42,27-33,38.47a29.11,29.11,0,0,0,.19,5.36c1.55,11.76,8.42,23.22,34.83,28.09s36.41-14.8,37.06-23.21c0,0,64.16,4.63,104,9.14s53.07,2,66.41,7.27,16.6,8.7,22.24,8.78,21.85-18,22.25-23.3C368.23,381.58,367,378.41,365.47,375.83Z" style="fill: rgb(126, 87, 194); opacity: 0.5; isolation: isolate; transform-origin: 224.564px 368.233px 0px;" class="animable"></path></g><path d="M87.07,361.32S106,331.06,124.83,329s78.79,6.82,78.79,6.82" style="fill: none; stroke: rgb(46, 53, 58); stroke-linecap: round; stroke-linejoin: round; transform-origin: 145.345px 345.005px 0px;" id="elopbyideicb" class="animable"></path><path d="M209.87,337s37,5.34,85.37,17.56,68,19,70.61,21.35" style="fill: none; stroke: rgb(46, 53, 58); stroke-linecap: round; stroke-linejoin: round; transform-origin: 287.86px 356.455px 0px;" id="el7s7hden812d" class="animable"></path><path d="M245.94,310.75S325,331.26,330,333.31a18.16,18.16,0,0,1,7.49,5.55" style="fill: rgb(255, 255, 255); stroke: rgb(46, 53, 58); stroke-linecap: round; stroke-linejoin: round; transform-origin: 291.715px 324.805px 0px;" id="elabd8ekzl14p" class="animable"></path><path d="M146.93,294.05,126.67,323.5s28.6-.6,104.15,11.61l1.75-27s-36.49-11.3-51.57-12.47S146.93,294.05,146.93,294.05Z" style="fill: rgb(46, 53, 58); stroke: rgb(46, 53, 58); stroke-linecap: round; stroke-linejoin: round; transform-origin: 179.62px 314.58px 0px;" id="el4fflmzfngbg" class="animable"></path><path d="M127,323.49c1.54,0,8.31,0,21.65,1.09L134.58,312l-.92,1.34Z" style="fill: rgb(255, 255, 255); stroke: rgb(46, 53, 58); stroke-linecap: round; stroke-linejoin: round; transform-origin: 137.825px 318.29px 0px;" id="elqslf6qi5og" class="animable"></path><path d="M146.93,294.05l-3.85,5.61,33.51,27.75c8.54,1,18.3,2.28,29.37,3.89q5.88.66,12.24,1.44L171.93,295C159.26,294.32,146.93,294.05,146.93,294.05Z" style="fill: rgb(255, 255, 255); stroke: rgb(46, 53, 58); stroke-linecap: round; stroke-linejoin: round; transform-origin: 180.64px 313.395px 0px;" id="elo3fgcwghfv" class="animable"></path><path d="M233.92,313.78l-.27,16c3.94-.21,10.09-.07,14.53,2.2a36.12,36.12,0,0,0-2.43-16Z" style="fill: rgb(255, 255, 255); stroke: rgb(46, 53, 58); stroke-miterlimit: 10; transform-origin: 240.966px 322.88px 0px;" id="elu1hj7fzfnpg" class="animable"></path><path d="M245,314.22a31.24,31.24,0,0,0-3-5l-8-1.68-.08,5Z" style="fill: rgb(255, 255, 255); stroke: rgb(46, 53, 58); stroke-miterlimit: 10; transform-origin: 239.46px 310.88px 0px;" id="el8wd2ryojvhx" class="animable"></path><path d="M233.62,331.94l-.08,4.44,13.59,2.12a31.14,31.14,0,0,0,.9-4.87C245.57,332.55,240.93,331.27,233.62,331.94Z" style="fill: rgb(255, 255, 255); stroke: rgb(46, 53, 58); stroke-miterlimit: 10; transform-origin: 240.785px 335.127px 0px;" id="el2n73yld0lfo" class="animable"></path><path d="M264.57,315.15s-7.59-1.88-8.89-1.8-1.65,2.27-1.65,2.27l2.72,5.37s-.44.88,3.52,2.11,7.43,1.5,7.84,1,.34-2,.62-3.27S266.4,315.29,264.57,315.15Z" style="fill: rgb(255, 255, 255); stroke: rgb(46, 53, 58); stroke-linecap: round; stroke-linejoin: round; transform-origin: 261.39px 318.842px 0px;" id="elcni2b38j1re" class="animable"></path><path d="M269.55,324.56s-7.55-2.43-8.85-2.35-2.6,2.75-2.6,2.75.95,6.7,1.81,7.51,9.18,2.74,10.46,2.84,1.78-1.52,1.9-3.17S271,325,269.55,324.56Z" style="fill: rgb(255, 255, 255); stroke: rgb(46, 53, 58); stroke-linecap: round; stroke-linejoin: round; transform-origin: 265.189px 328.761px 0px;" id="elbzmwgyhmdmn" class="animable"></path><path d="M272.41,335.1s-9.56-2.59-10.47-2.66-2.22,2.41-2.08,3-.06,5.52-.06,5.52l14.87,3-1.12-6.9S273.58,336.66,272.41,335.1Z" style="fill: rgb(255, 255, 255); stroke: rgb(46, 53, 58); stroke-linecap: round; stroke-linejoin: round; transform-origin: 267.235px 338.199px 0px;" id="el674ig7cy4e" class="animable"></path><path d="M271.78,317.18l-1.07,1.94,3.22,6s.09,1.12,3.16,1.91,8.69,2,8.69,2,1.61-1.72,1.3-2.48-3.74-6.37-5.15-7.21S272.21,316.29,271.78,317.18Z" style="fill: rgb(255, 255, 255); stroke: rgb(46, 53, 58); stroke-linecap: round; stroke-linejoin: round; transform-origin: 278.915px 323.001px 0px;" id="eliu7kgn004nj" class="animable"></path><path d="M277.09,327a9.77,9.77,0,0,0-1.11,2.49c-.06.73.95,6.7,2.5,8.11s10.49,2.48,11.77,2.58,1.62-1.9,1.74-3.37-1.88-6.59-3.29-7.44-9.55-2.77-9.55-2.77S277.73,325.93,277.09,327Z" style="fill: rgb(255, 255, 255); stroke: rgb(46, 53, 58); stroke-linecap: round; stroke-linejoin: round; transform-origin: 283.986px 333.288px 0px;" id="elukx7hx73ky" class="animable"></path><path d="M292.7,340.3a3,3,0,0,0-.91-.52c-2.06-.7-9.74-3.26-11.07-2.56-1.54.8-2.06,2.78-2,4.44a22.28,22.28,0,0,0,.46,3.54l15.87,4.36L293.69,342a2.87,2.87,0,0,0-1-1.7Z" style="fill: rgb(255, 255, 255); stroke: rgb(46, 53, 58); stroke-linecap: round; stroke-linejoin: round; transform-origin: 286.883px 343.33px 0px;" id="elu6nqtrztc6q" class="animable"></path><path d="M288.21,321.4l-.42,3.1s1.67,4.55,3.46,5.24,10.11,2.63,10.66,2.67,1.8-1.88,1.7-3-3.22-6-5-6.66-9.05-2-9.05-2S287.92,320.46,288.21,321.4Z" style="fill: rgb(255, 255, 255); stroke: rgb(46, 53, 58); stroke-linecap: round; stroke-linejoin: round; transform-origin: 295.703px 326.559px 0px;" id="el8s31oz0a5gi" class="animable"></path><path d="M295.08,330.23l-1.6,3.92s2.08,6.43,2.38,7.37,11.9,3.32,12.47,3,1.91-.78,1.74-3.37-3.74-8.76-5.19-9.06-7.59-1.88-8.14-1.92S295.32,329.51,295.08,330.23Z" style="fill: rgb(255, 255, 255); stroke: rgb(46, 53, 58); stroke-linecap: round; stroke-linejoin: round; transform-origin: 301.782px 337.217px 0px;" id="elrnlcfwlxz7c" class="animable"></path><path d="M299.48,342.36s-2,3.9-1.56,5.77a20.73,20.73,0,0,0,1.2,3.59l15.71,4s-1.87-6.78-2.24-9-4.35-3.28-7.59-4.27S299.2,341.23,299.48,342.36Z" style="fill: rgb(255, 255, 255); stroke: rgb(46, 53, 58); stroke-linecap: round; stroke-linejoin: round; transform-origin: 306.343px 348.663px 0px;" id="elpx57xni3fv" class="animable"></path><path d="M304.7,324.9l-.24,3.11s3.83,5.27,4.85,6.27,9.38,2.57,10.13,2.44,1.07-1.94.79-3.07-4.33-5.86-5.94-6.54-8.26-2.66-8.26-2.66S304.24,323.75,304.7,324.9Z" style="fill: rgb(255, 255, 255); stroke: rgb(46, 53, 58); stroke-linecap: round; stroke-linejoin: round; transform-origin: 312.395px 330.483px 0px;" id="elqfzgldofuan" class="animable"></path><path d="M311.86,334.66s-1.06,4.16-.54,4.56,2.82,6.49,4.05,7.13,10.3,2.65,11.43,2.36,1.29-2.47.7-4.36-4.26-6.78-6.4-7.68c-1.53-.65-7.58-2.06-7.58-2.06S312.3,333.77,311.86,334.66Z" style="fill: rgb(255, 255, 255); stroke: rgb(46, 53, 58); stroke-linecap: round; stroke-linejoin: round; transform-origin: 319.506px 341.495px 0px;" id="eluqvndxgex3p" class="animable"></path><path d="M325.56,348.07s-5.55-2.09-6.5-1.8-2.1,3.34-2.14,3.89,2,7.15,2,7.15l14.78,4.28v-2.76c0-2.4-3.56-8.75-4.25-9.35S325.56,348.07,325.56,348.07Z" style="fill: rgb(255, 255, 255); stroke: rgb(46, 53, 58); stroke-linecap: round; stroke-linejoin: round; transform-origin: 325.31px 353.916px 0px;" id="eldb399y1zwll" class="animable"></path><path d="M321.81,329.91a19.11,19.11,0,0,0-.59,2.9c-.09,1.1,3.13,4.66,4.71,5.71s9.34,3.12,9.88,3.16,2-1.69,1-3.42a22,22,0,0,0-5.82-5.8A28.55,28.55,0,0,0,321.81,329.91Z" style="fill: rgb(126, 87, 194); stroke: rgb(46, 53, 58); stroke-linecap: round; stroke-linejoin: round; transform-origin: 329.185px 335.795px 0px;" id="elm0n582vqap" class="animable"></path><path d="M329.7,339.73a12,12,0,0,0-.73,2.34c-.06.73,3.54,6.54,4.39,7.52s8.81,2.71,9.73,2.78,3-.13,2.24-2.77-3-6.86-5.12-7.58-6.11-1.95-7.91-2.46A2.91,2.91,0,0,0,329.7,339.73Z" style="fill: rgb(126, 87, 194); stroke: rgb(46, 53, 58); stroke-linecap: round; stroke-linejoin: round; transform-origin: 337.232px 345.856px 0px;" id="elm9lf5p8abak" class="animable"></path><path d="M337.5,350.84a11.21,11.21,0,0,0-1.63,4.29c-.15,2,1.49,6.93,3.05,8.16s12.21,4.08,12.21,4.08a52.18,52.18,0,0,0,1.33-5.24c.33-2-5.06-8.32-5.56-9.09S338.79,350.75,337.5,350.84Z" style="fill: rgb(126, 87, 194); stroke: rgb(46, 53, 58); stroke-linecap: round; stroke-linejoin: round; transform-origin: 344.167px 359.103px 0px;" id="el0uh73hua3so" class="animable"></path><path d="M357.8,393.28c-3.8-1-9.73-1.82-11.94-5.16s-4.68-7.77-27.11-9.51-173.78-23-189.22-23.87-27.46,17.61-27.46,17.61-9.43-1.08-15.28-3a13.92,13.92,0,0,1-5-2.88,32.53,32.53,0,0,0-.54,10.91c1.55,11.76,8.42,23.22,34.83,28.09s36.41-14.8,37.06-23.21c0,0,64.16,4.63,104,9.14s53.07,2,66.41,7.27,16.6,8.7,22.24,8.78c3.41.05,10.69-6.57,16-13C360.26,394,358.84,393.55,357.8,393.28Z" style="fill: rgb(46, 53, 58); stroke: rgb(46, 53, 58); stroke-linecap: round; stroke-linejoin: round; transform-origin: 221.405px 381.08px 0px;" id="el66jtkpb803x" class="animable"></path><path d="M99.62,376.75S94.94,387,93.11,392.46" style="fill: none; stroke: rgb(255, 255, 255); stroke-linecap: round; stroke-linejoin: round; stroke-width: 0.75px; transform-origin: 96.365px 384.605px 0px;" id="el4nrimfow5da" class="animable"></path><path d="M105.87,373.35s27,6.33,43.77,8.34" style="fill: none; stroke: rgb(255, 255, 255); stroke-linecap: round; stroke-linejoin: round; stroke-width: 0.75px; transform-origin: 127.755px 377.52px 0px;" id="elmc7hbmislgh" class="animable"></path><path d="M126.67,323.5s-16.76-11.17-30.43-12.24-24.64,8.67-24.64,8.67,33.66-29.47,42.91-30.51,21.32-2.23,32.42,4.63Z" style="fill: rgb(255, 255, 255); stroke: rgb(46, 53, 58); stroke-linecap: round; stroke-linejoin: round; transform-origin: 109.265px 306.06px 0px;" id="elhiszfzt2zm9" class="animable"></path></g><defs>     <filter id="active" height="200%">         <feMorphology in="SourceAlpha" result="DILATED" operator="dilate" radius="2"></feMorphology>                <feFlood flood-color="#32DFEC" flood-opacity="1" result="PINK"></feFlood>        <feComposite in="PINK" in2="DILATED" operator="in" result="OUTLINE"></feComposite>        <feMerge>            <feMergeNode in="OUTLINE"></feMergeNode>            <feMergeNode in="SourceGraphic"></feMergeNode>        </feMerge>    </filter>    <filter id="hover" height="200%">        <feMorphology in="SourceAlpha" result="DILATED" operator="dilate" radius="2"></feMorphology>                <feFlood flood-color="#ff0000" flood-opacity="0.5" result="PINK"></feFlood>        <feComposite in="PINK" in2="DILATED" operator="in" result="OUTLINE"></feComposite>        <feMerge>            <feMergeNode in="OUTLINE"></feMergeNode>            <feMergeNode in="SourceGraphic"></feMergeNode>        </feMerge>            <feColorMatrix type="matrix" values="0   0   0   0   0                0   1   0   0   0                0   0   0   0   0                0   0   0   1   0 "></feColorMatrix>    </filter></defs></svg>