<svg class="animated" id="freepik_stories-waiting" xmlns="http://www.w3.org/2000/svg" viewBox="0 0 750 500" version="1.1" xmlns:xlink="http://www.w3.org/1999/xlink" xmlns:svgjs="http://svgjs.com/svgjs"><style>svg#freepik_stories-waiting:not(.animated) .animable {opacity: 0;}svg#freepik_stories-waiting.animated #freepik--background-simple--inject-2 {animation: 1s 1 forwards cubic-bezier(.36,-0.01,.5,1.38) slideDown;animation-delay: 0s;}svg#freepik_stories-waiting.animated #freepik--Lines--inject-2 {animation: 1s 1 forwards cubic-bezier(.36,-0.01,.5,1.38) lightSpeedRight;animation-delay: 0s;}svg#freepik_stories-waiting.animated #freepik--Plant--inject-2 {animation: 1s 1 forwards cubic-bezier(.36,-0.01,.5,1.38) zoomOut;animation-delay: 0s;}svg#freepik_stories-waiting.animated #freepik--Window--inject-2 {animation: 1s 1 forwards cubic-bezier(.36,-0.01,.5,1.38) slideUp;animation-delay: 0s;}svg#freepik_stories-waiting.animated #freepik--Clock--inject-2 {animation: 1s 1 forwards cubic-bezier(.36,-0.01,.5,1.38) zoomOut;animation-delay: 0s;}svg#freepik_stories-waiting.animated #freepik--Floor--inject-2 {animation: 1s 1 forwards cubic-bezier(.36,-0.01,.5,1.38) slideRight;animation-delay: 0s;}svg#freepik_stories-waiting.animated #freepik--Chair--inject-2 {animation: 1s 1 forwards cubic-bezier(.36,-0.01,.5,1.38) fadeIn;animation-delay: 0s;}svg#freepik_stories-waiting.animated #freepik--Character--inject-2 {animation: 1s 1 forwards cubic-bezier(.36,-0.01,.5,1.38) slideRight;animation-delay: 0s;}svg#freepik_stories-waiting.animated #freepik--Door--inject-2 {animation: 1s 1 forwards cubic-bezier(.36,-0.01,.5,1.38) slideUp;animation-delay: 0s;}            @keyframes slideDown {                0% {                    opacity: 0;                    transform: translateY(-30px);                }                100% {                    opacity: 1;                    transform: translateY(0);                }            }                    @keyframes lightSpeedRight {              from {                transform: translate3d(50%, 0, 0) skewX(-20deg);                opacity: 0;              }              60% {                transform: skewX(10deg);                opacity: 1;              }              80% {                transform: skewX(-2deg);              }              to {                opacity: 1;                transform: translate3d(0, 0, 0);              }            }                    @keyframes zoomOut {                0% {                    opacity: 0;                    transform: scale(1.5);                }                100% {                    opacity: 1;                    transform: scale(1);                }            }                    @keyframes slideUp {                0% {                    opacity: 0;                    transform: translateY(30px);                }                100% {                    opacity: 1;                    transform: inherit;                }            }                    @keyframes slideRight {                0% {                    opacity: 0;                    transform: translateX(30px);                }                100% {                    opacity: 1;                    transform: translateX(0);                }            }                    @keyframes fadeIn {                0% {                    opacity: 0;                }                100% {                    opacity: 1;                }            }        </style><g id="freepik--background-simple--inject-2" style="transform-origin: 378.768px 252.365px 0px;" class="animable"><path d="M700,136S661,46,538,27s-177.89,15-213,61S265,78,162,74c-36.5-1.42-77.72,5.12-102.79,34.33-19.3,22.49-26.82,57.33-8.5,82.7,16.23,22.48,53.37,56.32,35.29,87-23,39-53,99-21,144s66,64,165,45,134-58,182-34,147,61,206,47,40-86,36-111,61-51,63-118S711,161,700,136Z" style="fill: rgb(126, 87, 194); transform-origin: 378.768px 252.365px 0px;" id="el92av3pw28bf" class="animable"></path><g id="eltusrlkjp6n"><path d="M700,136S661,46,538,27s-177.89,15-213,61S265,78,162,74c-36.5-1.42-77.72,5.12-102.79,34.33-19.3,22.49-26.82,57.33-8.5,82.7,16.23,22.48,53.37,56.32,35.29,87-23,39-53,99-21,144s66,64,165,45,134-58,182-34,147,61,206,47,40-86,36-111,61-51,63-118S711,161,700,136Z" style="fill: rgb(255, 255, 255); opacity: 0.7; transform-origin: 378.768px 252.365px 0px;" class="animable"></path></g></g><g id="freepik--Lines--inject-2" style="transform-origin: 377px 306.5px 0px;" class="animable"><line x1="708" y1="302" x2="46" y2="302" style="fill: none; stroke: rgb(38, 50, 56); stroke-linecap: round; stroke-linejoin: round; transform-origin: 377px 302px 0px;" id="elc2rksij9w6w" class="animable"></line><line x1="708" y1="311" x2="46" y2="311" style="fill: none; stroke: rgb(38, 50, 56); stroke-linecap: round; stroke-linejoin: round; transform-origin: 377px 311px 0px;" id="elyk07h8cwr0o" class="animable"></line></g><g id="freepik--Plant--inject-2" style="transform-origin: 584.295px 349.976px 0px;" class="animable"><ellipse cx="583.15" cy="297.16" rx="9.19" ry="24.11" style="fill: rgb(126, 87, 194); stroke: rgb(38, 50, 56); stroke-miterlimit: 10; transform-origin: 583.15px 297.16px 0px;" id="eljajj4t0rb6i" class="animable"></ellipse><path d="M611.71,282.29c-2.87,9-8.39,15.37-12.33,14.12s-4.8-9.6-1.93-18.64,8.4-15.37,12.34-14.12S614.58,273.25,611.71,282.29Z" style="fill: rgb(126, 87, 194); stroke: rgb(38, 50, 56); stroke-miterlimit: 10; transform-origin: 604.582px 280.03px 0px;" id="el8743dquyke5" class="animable"></path><path d="M544.26,336.84c-9.36-1.59-16.39-6.18-15.7-10.25s8.84-6.09,18.19-4.5,16.39,6.17,15.7,10.24S553.61,338.42,544.26,336.84Z" style="fill: rgb(126, 87, 194); stroke: rgb(38, 50, 56); stroke-miterlimit: 10; transform-origin: 545.505px 329.462px 0px;" id="el8h98l88o6cq" class="animable"></path><path d="M620.37,314.54c-7.82,7.75-17,11.12-20.63,7.51s-.14-12.81,7.68-20.56S624.47,290.38,628,294,628.18,306.79,620.37,314.54Z" style="fill: rgb(126, 87, 194); stroke: rgb(38, 50, 56); stroke-miterlimit: 10; transform-origin: 613.852px 308.021px 0px;" id="el1kt8egrbefk" class="animable"></path><path d="M566.51,293.28c7.56,11,9.81,22.53,5,25.82s-14.78-2.92-22.34-13.89-9.81-22.52-5-25.82S559,282.32,566.51,293.28Z" style="fill: rgb(126, 87, 194); stroke: rgb(38, 50, 56); stroke-miterlimit: 10; transform-origin: 557.84px 299.244px 0px;" id="elvcauh5ev0la" class="animable"></path><line x1="583.79" y1="320.08" x2="584.5" y2="393.43" style="fill: none; stroke: rgb(38, 50, 56); stroke-linecap: round; stroke-miterlimit: 10; transform-origin: 584.145px 356.755px 0px;" id="el0yus52lcs8cf" class="animable"></line><line x1="582.93" y1="288.2" x2="583.79" y2="320.08" style="fill: none; stroke: rgb(38, 50, 56); stroke-linecap: round; stroke-miterlimit: 10; transform-origin: 583.36px 304.14px 0px;" id="el6g1c7e1tqim" class="animable"></line><line x1="583" y1="283" x2="582.93" y2="285.44" style="fill: none; stroke: rgb(38, 50, 56); stroke-linecap: round; stroke-miterlimit: 10; transform-origin: 582.965px 284.22px 0px;" id="el2tfvzs99awf" class="animable"></line><path d="M571.51,317.54a92.76,92.76,0,0,1,9.08,34.78v45.37" style="fill: none; stroke: rgb(38, 50, 56); stroke-linecap: round; stroke-miterlimit: 10; transform-origin: 576.05px 357.615px 0px;" id="elj4m2wp0u9sn" class="animable"></path><path d="M555.71,293.38a109,109,0,0,1,15.8,24.16" style="fill: none; stroke: rgb(38, 50, 56); stroke-linecap: round; stroke-miterlimit: 10; transform-origin: 563.61px 305.46px 0px;" id="elvr5ifb0zcba" class="animable"></path><path d="M550.75,288.12s1,.87,2.51,2.54" style="fill: none; stroke: rgb(38, 50, 56); stroke-linecap: round; stroke-miterlimit: 10; transform-origin: 552.005px 289.39px 0px;" id="elmlg258quyif" class="animable"></path><path d="M600.31,320.94a108.68,108.68,0,0,0-14.9,29.58" style="fill: none; stroke: rgb(38, 50, 56); stroke-linecap: round; stroke-miterlimit: 10; transform-origin: 592.86px 335.73px 0px;" id="el0xf2lpd219p" class="animable"></path><path d="M610.89,308.79a86.4,86.4,0,0,0-10.58,12.15" style="fill: none; stroke: rgb(38, 50, 56); stroke-linecap: round; stroke-miterlimit: 10; transform-origin: 605.6px 314.865px 0px;" id="elsxk09ashw6" class="animable"></path><path d="M622.18,300.18a48,48,0,0,0-8,5.71" style="fill: none; stroke: rgb(38, 50, 56); stroke-linecap: round; stroke-miterlimit: 10; transform-origin: 618.18px 303.035px 0px;" id="ellv7wxu7kyd9" class="animable"></path><path d="M599.92,294.17c-5.09,16-11.92,39.71-15.11,60.26" style="fill: none; stroke: rgb(38, 50, 56); stroke-linecap: round; stroke-miterlimit: 10; transform-origin: 592.365px 324.3px 0px;" id="el4ci4x4kp1pc" class="animable"></path><path d="M603,284.66c-.91,2.7-2,5.91-3.11,9.51" style="fill: none; stroke: rgb(38, 50, 56); stroke-linecap: round; stroke-miterlimit: 10; transform-origin: 601.445px 289.415px 0px;" id="elk4n91yis3pm" class="animable"></path><path d="M606.21,275.46s-.89,2.46-2.33,6.66" style="fill: none; stroke: rgb(38, 50, 56); stroke-linecap: round; stroke-miterlimit: 10; transform-origin: 605.045px 278.79px 0px;" id="els4imjm13n1d" class="animable"></path><path d="M562,330.11c6.36,2.41,15.06,9.14,18.08,18" style="fill: none; stroke: rgb(38, 50, 56); stroke-linecap: round; stroke-miterlimit: 10; transform-origin: 571.04px 339.11px 0px;" id="elk8cxik7lmtl" class="animable"></path><path d="M550.22,327.72A40,40,0,0,1,562,330.11" style="fill: none; stroke: rgb(38, 50, 56); stroke-linecap: round; stroke-miterlimit: 10; transform-origin: 556.11px 328.915px 0px;" id="el6t26wjhh52h" class="animable"></path><path d="M542.61,327.91s1.13-.16,3-.24" style="fill: none; stroke: rgb(38, 50, 56); stroke-linecap: round; stroke-miterlimit: 10; transform-origin: 544.11px 327.79px 0px;" id="elhk6zp3pswpk" class="animable"></path><path d="M562.61,372.09c-8.6,4-17,4.24-18.73.5s3.8-10,12.4-14,17-4.23,18.74-.49S571.21,368.08,562.61,372.09Z" style="fill: rgb(126, 87, 194); stroke: rgb(38, 50, 56); stroke-miterlimit: 10; transform-origin: 559.451px 365.343px 0px;" id="elr61ic69hdn" class="animable"></path><path d="M562.34,361.2a40.16,40.16,0,0,1,11-4.71,5.5,5.5,0,0,1,5.91.11c1.17.77.78,6.59.78,6.59v30.24" style="fill: none; stroke: rgb(38, 50, 56); stroke-linecap: round; stroke-miterlimit: 10; transform-origin: 571.216px 374.556px 0px;" id="el9mlky0rqyb" class="animable"></path><path d="M556.18,365.69s.84-.78,2.34-1.9" style="fill: none; stroke: rgb(38, 50, 56); stroke-linecap: round; stroke-miterlimit: 10; transform-origin: 557.35px 364.74px 0px;" id="el1s7bppz2mlgj" class="animable"></path><path d="M624.33,336.84c9.36-1.59,16.39-6.18,15.7-10.25s-8.84-6.09-18.19-4.5-16.39,6.17-15.7,10.24S615,338.42,624.33,336.84Z" style="fill: rgb(126, 87, 194); stroke: rgb(38, 50, 56); stroke-miterlimit: 10; transform-origin: 623.085px 329.462px 0px;" id="elby0ohgded7j" class="animable"></path><path d="M606.81,330a30.33,30.33,0,0,0-3.33,1.46A23.33,23.33,0,0,0,591,352.29v40" style="fill: none; stroke: rgb(38, 50, 56); stroke-linecap: round; stroke-miterlimit: 10; transform-origin: 598.905px 361.145px 0px;" id="elltghidvd8oc" class="animable"></path><path d="M619.35,327.67A41,41,0,0,0,606.81,330" style="fill: none; stroke: rgb(38, 50, 56); stroke-linecap: round; stroke-miterlimit: 10; transform-origin: 613.08px 328.835px 0px;" id="elpqjpliinsxe" class="animable"></path><path d="M626,327.91s-.74-.11-2-.19" style="fill: none; stroke: rgb(38, 50, 56); stroke-linecap: round; stroke-miterlimit: 10; transform-origin: 625px 327.815px 0px;" id="elr38scxux0p" class="animable"></path><g id="elcgadjfew68t"><ellipse cx="618.67" cy="357.74" rx="7.48" ry="17.18" style="fill: rgb(126, 87, 194); stroke: rgb(38, 50, 56); stroke-miterlimit: 10; transform-origin: 618.67px 357.74px 0px; transform: rotate(-60.04deg);" class="animable"></ellipse></g><path d="M616.94,354a41,41,0,0,0-11.17-6.17s-10.2-1.68-12.53,4.91" style="fill: none; stroke: rgb(38, 50, 56); stroke-linecap: round; stroke-miterlimit: 10; transform-origin: 605.09px 350.819px 0px;" id="elyg3hequhcah" class="animable"></path><path d="M621.9,358.39s-.51-.56-1.45-1.44" style="fill: none; stroke: rgb(38, 50, 56); stroke-linecap: round; stroke-miterlimit: 10; transform-origin: 621.175px 357.67px 0px;" id="elxg5he8tn3pn" class="animable"></path><path d="M594.79,353.11s-12-2.33-12,5.82,8.53,14.73,12,24,10.08,9.69,13.57.39S606.81,357,594.79,353.11Z" style="fill: rgb(126, 87, 194); stroke: rgb(38, 50, 56); stroke-miterlimit: 10; transform-origin: 596.117px 371.447px 0px;" id="ell5nqms220ua" class="animable"></path><path d="M586.65,353.5s10.47,4.26,13.57,17.83" style="fill: rgb(126, 87, 194); stroke: rgb(38, 50, 56); stroke-miterlimit: 10; transform-origin: 593.435px 362.415px 0px;" id="elkwk4ud1dwqj" class="animable"></path><line x1="587.43" y1="371.33" x2="587.43" y2="393.43" style="fill: none; stroke: rgb(38, 50, 56); stroke-linecap: round; stroke-miterlimit: 10; transform-origin: 587.43px 382.38px 0px;" id="elgjpmuu3g7tc" class="animable"></line><path d="M606.68,436.46A94.19,94.19,0,0,0,611,408.18a85,85,0,0,0-1.74-17.3h-49a85,85,0,0,0-1.74,17.3,94.19,94.19,0,0,0,4.35,28.28Z" style="fill: rgb(38, 50, 56); transform-origin: 584.76px 413.67px 0px;" id="els50u8rlijhd" class="animable"></path><path d="M559.06,399c-.14,1.33-.24,2.68-.32,4h52.13c-.08-1.36-.18-2.71-.32-4Z" style="fill: rgb(122, 122, 122); transform-origin: 584.805px 401px 0px;" id="el8whgjy1fa2p" class="animable"></path><path d="M610.32,419.63c.16-1.34.3-2.69.41-4H558.88c.11,1.35.25,2.7.41,4Z" style="fill: rgb(122, 122, 122); transform-origin: 584.805px 417.63px 0px;" id="elkl3q9lz2gwp" class="animable"></path><path d="M564.91,408.4a2.11,2.11,0,1,1-2.11-2A2.07,2.07,0,0,1,564.91,408.4Z" style="fill: rgb(140, 140, 140); transform-origin: 562.803px 408.51px 0px;" id="elsb9ezypf0ei" class="animable"></path><path d="M575.46,408.4a2.11,2.11,0,1,1-2.11-2A2.07,2.07,0,0,1,575.46,408.4Z" style="fill: rgb(140, 140, 140); transform-origin: 573.353px 408.51px 0px;" id="elevbta2wd05" class="animable"></path><path d="M586,408.4a2.11,2.11,0,1,1-2.11-2A2.07,2.07,0,0,1,586,408.4Z" style="fill: rgb(140, 140, 140); transform-origin: 583.893px 408.51px 0px;" id="elb7y3836bdjl" class="animable"></path><path d="M596.56,408.4a2.11,2.11,0,1,1-2.11-2A2.07,2.07,0,0,1,596.56,408.4Z" style="fill: rgb(140, 140, 140); transform-origin: 594.453px 408.51px 0px;" id="el0xtl54o54c3g" class="animable"></path><path d="M607.11,408.4a2.11,2.11,0,1,1-2.11-2A2.07,2.07,0,0,1,607.11,408.4Z" style="fill: rgb(140, 140, 140); transform-origin: 605.003px 408.51px 0px;" id="el0l1t9ijd82pp" class="animable"></path></g><g id="freepik--Window--inject-2" style="transform-origin: 567.03px 149.87px 0px;" class="animable"><path d="M426.68,56.87v186h68.05v-186ZM491.3,61V88.45H463V61Zm-32.55,0V88.45H430.11V61ZM430.11,92.81h28.64v27.24H430.11ZM491.3,238.73H430.11v-114H491.3ZM463,120.05V92.81H491.3v27.24Z" style="fill: none; stroke: rgb(38, 50, 56); stroke-linecap: round; stroke-linejoin: round; transform-origin: 460.705px 149.87px 0px;" id="eliqe4amzwiyb" class="animable"></path><path d="M494.46,56.87v186h68.05v-186ZM559.08,61V88.45H530.76V61Zm-32.55,0V88.45H497.89V61ZM497.89,92.81h28.64v27.24H497.89Zm61.19,145.92H497.89v-114h61.19ZM530.76,120.05V92.81h28.32v27.24Z" style="fill: none; stroke: rgb(38, 50, 56); stroke-linecap: round; stroke-linejoin: round; transform-origin: 528.485px 149.87px 0px;" id="elzl7qk4srgv" class="animable"></path><line x1="476.07" y1="155.64" x2="458.99" y2="174.52" style="fill: none; stroke: rgb(38, 50, 56); stroke-linecap: round; stroke-linejoin: round; transform-origin: 467.53px 165.08px 0px;" id="elvdham7sjvl" class="animable"></line><line x1="480.31" y1="150.96" x2="477.59" y2="153.96" style="fill: none; stroke: rgb(38, 50, 56); stroke-linecap: round; stroke-linejoin: round; transform-origin: 478.95px 152.46px 0px;" id="el9n7k7uombro" class="animable"></line><line x1="440.41" y1="188.29" x2="436.91" y2="191.94" style="fill: none; stroke: rgb(38, 50, 56); stroke-linecap: round; stroke-linejoin: round; transform-origin: 438.66px 190.115px 0px;" id="ela44z9yqbjcd" class="animable"></line><line x1="463.1" y1="164.62" x2="443.03" y2="185.56" style="fill: none; stroke: rgb(38, 50, 56); stroke-linecap: round; stroke-linejoin: round; transform-origin: 453.065px 175.09px 0px;" id="elh2ld655sqi" class="animable"></line><line x1="544.9" y1="161.41" x2="527.82" y2="180.29" style="fill: none; stroke: rgb(38, 50, 56); stroke-linecap: round; stroke-linejoin: round; transform-origin: 536.36px 170.85px 0px;" id="el3l26htdntkm" class="animable"></line><line x1="549.14" y1="156.72" x2="546.42" y2="159.72" style="fill: none; stroke: rgb(38, 50, 56); stroke-linecap: round; stroke-linejoin: round; transform-origin: 547.78px 158.22px 0px;" id="elmw1lnrjunhs" class="animable"></line><line x1="509.25" y1="194.05" x2="505.75" y2="197.7" style="fill: none; stroke: rgb(38, 50, 56); stroke-linecap: round; stroke-linejoin: round; transform-origin: 507.5px 195.875px 0px;" id="elkpbbikkj7a" class="animable"></line><line x1="531.93" y1="170.38" x2="511.86" y2="191.32" style="fill: none; stroke: rgb(38, 50, 56); stroke-linecap: round; stroke-linejoin: round; transform-origin: 521.895px 180.85px 0px;" id="eljduughnetq" class="animable"></line><path d="M571.6,56.87v186h68v-186ZM636.22,61V88.45H607.9V61Zm-32.55,0V88.45H575V61ZM575,92.81h28.64v27.24H575Zm61.19,145.92H575v-114h61.19ZM607.9,120.05V92.81h28.32v27.24Z" style="fill: none; stroke: rgb(38, 50, 56); stroke-linecap: round; stroke-linejoin: round; transform-origin: 605.6px 149.87px 0px;" id="eltdicr7ikwh" class="animable"></path><path d="M639.38,56.87v186h68v-186ZM704,61V88.45H675.68V61Zm-32.55,0V88.45H642.81V61ZM642.81,92.81h28.64v27.24H642.81ZM704,238.73H642.81v-114H704ZM675.68,120.05V92.81H704v27.24Z" style="fill: none; stroke: rgb(38, 50, 56); stroke-linecap: round; stroke-linejoin: round; transform-origin: 673.38px 149.87px 0px;" id="el4ujp7draduf" class="animable"></path><line x1="620.99" y1="155.64" x2="603.91" y2="174.52" style="fill: none; stroke: rgb(38, 50, 56); stroke-linecap: round; stroke-linejoin: round; transform-origin: 612.45px 165.08px 0px;" id="eli21cckmr6j" class="animable"></line><line x1="625.23" y1="150.96" x2="622.51" y2="153.96" style="fill: none; stroke: rgb(38, 50, 56); stroke-linecap: round; stroke-linejoin: round; transform-origin: 623.87px 152.46px 0px;" id="el1i1gtg0dych" class="animable"></line><line x1="585.33" y1="188.29" x2="581.83" y2="191.94" style="fill: none; stroke: rgb(38, 50, 56); stroke-linecap: round; stroke-linejoin: round; transform-origin: 583.58px 190.115px 0px;" id="elnr3nmwzia8j" class="animable"></line><line x1="608.02" y1="164.62" x2="587.95" y2="185.56" style="fill: none; stroke: rgb(38, 50, 56); stroke-linecap: round; stroke-linejoin: round; transform-origin: 597.985px 175.09px 0px;" id="el8hf7f8niocs" class="animable"></line><line x1="689.82" y1="161.41" x2="672.74" y2="180.29" style="fill: none; stroke: rgb(38, 50, 56); stroke-linecap: round; stroke-linejoin: round; transform-origin: 681.28px 170.85px 0px;" id="elifk3c41z5tc" class="animable"></line><line x1="694.06" y1="156.72" x2="691.34" y2="159.72" style="fill: none; stroke: rgb(38, 50, 56); stroke-linecap: round; stroke-linejoin: round; transform-origin: 692.7px 158.22px 0px;" id="elfokb0gf0tie" class="animable"></line><line x1="654.17" y1="194.05" x2="650.67" y2="197.7" style="fill: none; stroke: rgb(38, 50, 56); stroke-linecap: round; stroke-linejoin: round; transform-origin: 652.42px 195.875px 0px;" id="elt4zvfb4bynn" class="animable"></line><line x1="676.85" y1="170.38" x2="656.78" y2="191.32" style="fill: none; stroke: rgb(38, 50, 56); stroke-linecap: round; stroke-linejoin: round; transform-origin: 666.815px 180.85px 0px;" id="eli3espfxlqtc" class="animable"></line></g><g id="freepik--Clock--inject-2" style="transform-origin: 352.7px 127.3px 0px;" class="animable"><g id="elax5mtml7ra6"><circle cx="352.7" cy="127.3" r="34.3" style="fill: rgb(38, 50, 56); stroke: rgb(38, 50, 56); stroke-linejoin: round; transform-origin: 352.7px 127.3px 0px; transform: rotate(-45deg);" class="animable"></circle></g><g id="el5rku1lv279n"><circle cx="352.7" cy="127.3" r="31.38" style="fill: rgb(255, 255, 255); stroke: rgb(38, 50, 56); stroke-linejoin: round; transform-origin: 352.7px 127.3px 0px; transform: rotate(-50.12deg);" class="animable"></circle></g><path d="M355.62,127.3a2.92,2.92,0,1,0-2.92,2.92A2.92,2.92,0,0,0,355.62,127.3Z" style="fill: rgb(38, 50, 56); stroke: rgb(38, 50, 56); stroke-linejoin: round; transform-origin: 352.7px 127.3px 0px;" id="elfqyn52trlai" class="animable"></path><line x1="355.09" y1="129.47" x2="359.66" y2="135.24" style="fill: rgb(255, 255, 255); stroke: rgb(38, 50, 56); stroke-linejoin: round; transform-origin: 357.375px 132.355px 0px;" id="el6s8revql2nu" class="animable"></line><line x1="355.09" y1="125.15" x2="368.07" y2="106.63" style="fill: rgb(255, 255, 255); stroke: rgb(38, 50, 56); stroke-linejoin: round; transform-origin: 361.58px 115.89px 0px;" id="elrknwzq7rv5g" class="animable"></line></g><g id="freepik--Floor--inject-2" style="transform-origin: 362.5px 431.86px 0px;" class="animable"><line x1="658.22" y1="431.86" x2="35" y2="431.86" style="fill: none; stroke: rgb(38, 50, 56); stroke-linejoin: round; transform-origin: 346.61px 431.86px 0px;" id="elkdwbwynw3" class="animable"></line><line x1="690" y1="431.86" x2="666.42" y2="431.86" style="fill: none; stroke: rgb(38, 50, 56); stroke-linejoin: round; transform-origin: 678.21px 431.86px 0px;" id="elqfl1k5a20yr" class="animable"></line></g><g id="freepik--Chair--inject-2" style="transform-origin: 345.775px 350.21px 0px;" class="animable"><polygon points="305.32 436.69 300.92 436.69 300.4 354.5 305.84 354.5 305.32 436.69" style="fill: rgb(255, 255, 255); stroke: rgb(38, 50, 56); stroke-linejoin: round; transform-origin: 303.12px 395.595px 0px;" id="ely1nx7utjxjm" class="animable"></polygon><polygon points="300.42 357.98 305.82 357.98 305.84 354.5 300.4 354.5 300.42 357.98" style="fill: rgb(38, 50, 56); stroke: rgb(38, 50, 56); stroke-miterlimit: 10; transform-origin: 303.12px 356.24px 0px;" id="el7rsex9b9xdi" class="animable"></polygon><polygon points="311.91 436.69 307.5 436.69 306.98 354.5 312.43 354.5 311.91 436.69" style="fill: rgb(38, 50, 56); stroke: rgb(38, 50, 56); stroke-miterlimit: 10; transform-origin: 309.705px 395.595px 0px;" id="elfmb6zvastqc" class="animable"></polygon><polygon points="389.22 436.69 384.82 436.69 384.3 354.5 389.74 354.5 389.22 436.69" style="fill: rgb(255, 255, 255); stroke: rgb(38, 50, 56); stroke-linejoin: round; transform-origin: 387.02px 395.595px 0px;" id="elhin07zd76o" class="animable"></polygon><polygon points="384.32 357.98 389.72 357.98 389.74 354.5 384.3 354.5 384.32 357.98" style="fill: rgb(38, 50, 56); stroke: rgb(38, 50, 56); stroke-miterlimit: 10; transform-origin: 387.02px 356.24px 0px;" id="elt2e9lh67zk" class="animable"></polygon><polygon points="382.06 436.69 377.66 436.69 377.14 354.5 382.58 354.5 382.06 436.69" style="fill: rgb(38, 50, 56); stroke: rgb(38, 50, 56); stroke-miterlimit: 10; transform-origin: 379.86px 395.595px 0px;" id="elb5n8sho6re" class="animable"></polygon><polygon points="391.89 348.77 299.54 348.77 311.26 330.74 380.16 330.74 391.89 348.77" style="fill: rgb(255, 255, 255); stroke: rgb(38, 50, 56); stroke-linejoin: round; transform-origin: 345.715px 339.755px 0px;" id="elqvs4x0q6r6a" class="animable"></polygon><rect x="299.54" y="348.77" width="92.47" height="6.1" style="fill: rgb(255, 255, 255); stroke: rgb(38, 50, 56); stroke-linejoin: round; transform-origin: 345.775px 351.82px 0px;" id="elwtcaq0hczri" class="animable"></rect><path d="M317.52,263.73h56.1a6.25,6.25,0,0,1,6.25,6.25v60.76a0,0,0,0,1,0,0h-68.6a0,0,0,0,1,0,0V270A6.25,6.25,0,0,1,317.52,263.73Z" style="fill: rgb(255, 255, 255); stroke: rgb(38, 50, 56); stroke-linejoin: round; transform-origin: 345.57px 297.235px 0px;" id="elvnri2f2ak1m" class="animable"></path></g><g id="freepik--Character--inject-2" style="transform-origin: 469.292px 314.484px 0px;" class="animable"><polygon points="426.9 436.69 422.5 436.69 421.98 354.5 427.42 354.5 426.9 436.69" style="fill: rgb(255, 255, 255); stroke: rgb(38, 50, 56); stroke-linejoin: round; transform-origin: 424.7px 395.595px 0px;" id="ellwzvtmhaptc" class="animable"></polygon><polygon points="422 357.98 427.4 357.98 427.42 354.5 421.98 354.5 422 357.98" style="fill: rgb(38, 50, 56); stroke: rgb(38, 50, 56); stroke-miterlimit: 10; transform-origin: 424.7px 356.24px 0px;" id="elfrpp7wf7d1k" class="animable"></polygon><polygon points="433.49 436.69 429.08 436.69 428.56 354.5 434 354.5 433.49 436.69" style="fill: rgb(38, 50, 56); stroke: rgb(38, 50, 56); stroke-miterlimit: 10; transform-origin: 431.28px 395.595px 0px;" id="elghkak5jo22t" class="animable"></polygon><polygon points="510.8 436.69 506.4 436.69 505.88 354.5 511.32 354.5 510.8 436.69" style="fill: rgb(255, 255, 255); stroke: rgb(38, 50, 56); stroke-linejoin: round; transform-origin: 508.6px 395.595px 0px;" id="el5rgwkh1rnhs" class="animable"></polygon><polygon points="505.9 357.98 511.3 357.98 511.32 354.5 505.88 354.5 505.9 357.98" style="fill: rgb(38, 50, 56); stroke: rgb(38, 50, 56); stroke-miterlimit: 10; transform-origin: 508.6px 356.24px 0px;" id="el41n4x7r1upd" class="animable"></polygon><polygon points="503.64 436.69 499.24 436.69 498.72 354.5 504.16 354.5 503.64 436.69" style="fill: rgb(38, 50, 56); stroke: rgb(38, 50, 56); stroke-miterlimit: 10; transform-origin: 501.44px 395.595px 0px;" id="elc4g7zuygbqn" class="animable"></polygon><polygon points="513.47 348.77 421.12 348.77 432.85 330.74 501.74 330.74 513.47 348.77" style="fill: rgb(255, 255, 255); stroke: rgb(38, 50, 56); stroke-linejoin: round; transform-origin: 467.295px 339.755px 0px;" id="elraqw2qkwq2" class="animable"></polygon><rect x="421.12" y="348.77" width="92.47" height="6.1" style="fill: rgb(255, 255, 255); stroke: rgb(38, 50, 56); stroke-linejoin: round; transform-origin: 467.355px 351.82px 0px;" id="el1g25i3p6uxu" class="animable"></rect><path d="M439.1,263.73h56.1a6.25,6.25,0,0,1,6.25,6.25v60.76a0,0,0,0,1,0,0h-68.6a0,0,0,0,1,0,0V270A6.25,6.25,0,0,1,439.1,263.73Z" style="fill: rgb(255, 255, 255); stroke: rgb(38, 50, 56); stroke-linejoin: round; transform-origin: 467.15px 297.235px 0px;" id="el2cpydx9s3qm" class="animable"></path><path d="M444.35,420.71a78.9,78.9,0,0,0-4.36,7.72c-.88,2.18-7,7.86-8.45,10.63s.43,5.1,7.28,5.83,9.32-3.94,10.92-6,1.61-5,3.5-6.26,5.53-4.8,5.82-8.3a17.78,17.78,0,0,0-.43-6Z" style="fill: rgb(255, 255, 255); stroke: rgb(38, 50, 56); stroke-miterlimit: 10; transform-origin: 445.114px 431.648px 0px;" id="elzog7b0s0xfi" class="animable"></path><path d="M459.06,424.35a19.31,19.31,0,0,0-.16-4.67,31.18,31.18,0,0,0-.56,3.36c-.59,5.1-6.7,7-8,9.9s-3.21,8.74-8.6,9.91c-4,.86-8.5-1.37-10.6-2.6-.38,2.23,1.85,4,7.69,4.64,6.85.72,9.32-3.94,10.92-6s1.61-5,3.5-6.26S458.77,427.85,459.06,424.35Z" style="fill: rgb(255, 255, 255); stroke: rgb(38, 50, 56); stroke-miterlimit: 10; transform-origin: 445.116px 432.322px 0px;" id="el5rqqmtyrgbi" class="animable"></path><path d="M492.9,420.71a78.43,78.43,0,0,1,4.37,7.72c.87,2.18,7,7.86,8.45,10.63s-.44,5.1-7.29,5.83-9.32-3.94-10.92-6-1.6-5-3.49-6.26-5.54-4.8-5.83-8.3a17.93,17.93,0,0,1,.44-6Z" style="fill: rgb(255, 255, 255); stroke: rgb(38, 50, 56); stroke-miterlimit: 10; transform-origin: 492.143px 431.648px 0px;" id="el3vb6g5addnk" class="animable"></path><path d="M478.19,424.35a19.84,19.84,0,0,1,.16-4.67,28.67,28.67,0,0,1,.57,3.36c.58,5.1,6.7,7,8,9.9s3.2,8.74,8.59,9.91c4,.86,8.51-1.37,10.61-2.6.37,2.23-1.86,4-7.7,4.64-6.84.72-9.32-3.94-10.92-6s-1.6-5-3.49-6.26S478.48,427.85,478.19,424.35Z" style="fill: rgb(255, 255, 255); stroke: rgb(38, 50, 56); stroke-miterlimit: 10; transform-origin: 492.14px 432.322px 0px;" id="eld9glw915ivd" class="animable"></path><path d="M515.09,347.74c0-4.95-13.65-23.8-13.65-23.8l-4.95-11.67-25.2,2.37H465.5l-25.2-2.37-4.95,11.67s-13.65,18.85-13.65,23.8.59,6.53.59,6.53l22,60-1.78,4.15.79,3.17s2.77,2.37,8.11,2.37a12.74,12.74,0,0,0,8.51-3.16s.59-6.53.59-8.91-4.35-13.85-4.35-16.22S452,349.91,452,349.91L467.43,339h1.93l15.46,10.93s-4.16,43.34-4.16,45.71-4.35,13.85-4.35,16.22.59,8.91.59,8.91a12.74,12.74,0,0,0,8.51,3.16c5.34,0,8.11-2.37,8.11-2.37l.8-3.17-1.79-4.15,22-60S515.09,352.68,515.09,347.74Z" style="fill: rgb(38, 50, 56); stroke: rgb(38, 50, 56); stroke-miterlimit: 10; transform-origin: 468.395px 368.115px 0px;" id="elfjuu78cpu2" class="animable"></path><path d="M471,336.41s7.91-11.87,17.61-15.24" style="fill: none; stroke: rgb(125, 125, 125); stroke-miterlimit: 10; transform-origin: 479.805px 328.79px 0px;" id="elwutsuwkrsbm" class="animable"></path><path d="M479.48,328.89s7.32-5.74,14.44-6.53" style="fill: none; stroke: rgb(125, 125, 125); stroke-miterlimit: 10; transform-origin: 486.7px 325.625px 0px;" id="elmtyfvg2feg" class="animable"></path><path d="M454.55,325.13s6.53,4.75,9.49,9.69" style="fill: none; stroke: rgb(125, 125, 125); stroke-miterlimit: 10; transform-origin: 459.295px 329.975px 0px;" id="eln01tdqqthdq" class="animable"></path><path d="M454,237.28l-24.14,9.1L435,290.5s1.78,22.16,3.56,23,24.93,4.55,29.28,4.35,27.5-.79,30.08-4.95,9.69-64.7,9.49-66.28-30.27-12.07-30.27-12.07Z" style="fill: rgb(126, 87, 194); stroke: rgb(38, 50, 56); stroke-linejoin: round; transform-origin: 468.637px 276.204px 0px;" id="elz2e6vol1e8j" class="animable"></path><path d="M459.1,253.7l7.32,8.71,8.11-8.51s5.34-14.25,5.14-15.83-3.95-4.35-3.95-4.35l-13.66-.4-9.49,4.36Z" style="fill: rgb(255, 255, 255); stroke: rgb(38, 50, 56); stroke-linejoin: round; transform-origin: 466.123px 247.865px 0px;" id="ela72qovl57i" class="animable"></path><path d="M457.12,231,452,236.69l7.13,17,6.92-6.92,8.51,7.12s4.15-9.69,5.14-12.27a20.38,20.38,0,0,0,1-6.13L475.32,230Z" style="fill: rgb(255, 255, 255); stroke: rgb(38, 50, 56); stroke-linejoin: round; transform-origin: 466.35px 241.945px 0px;" id="elae6qq3eyyni" class="animable"></path><polygon points="455.14 228.38 456.13 234.91 466.02 246.78 477.1 234.51 477.69 227.19 465.43 233.13 455.14 228.38" style="fill: rgb(255, 255, 255); stroke: rgb(38, 50, 56); stroke-linejoin: round; transform-origin: 466.415px 236.985px 0px;" id="el4uf1du4wu7k" class="animable"></polygon><path d="M449.4,208.79s-2,.39-1.78,3.76,5.14,7.32,5.14,7.32l-1.58-12.07Z" style="fill: rgb(255, 255, 255); stroke: rgb(38, 50, 56); stroke-linejoin: round; transform-origin: 450.182px 213.835px 0px;" id="eloajpbrn8dbj" class="animable"></path><path d="M450.79,206.22s1.78,19.78,3,21.76,8.31,9.7,11.48,10.09c1.68.21,12.66-7.32,13.45-10.48s1.79-9.3,1.79-9.3,2.37.19,3.75-5.35-.79-6.53-1.78-6.53h-1.58s-.39-8.11-1-9.69-26.91,2.18-29.28,4.15S450.79,206.22,450.79,206.22Z" style="fill: rgb(255, 255, 255); stroke: rgb(38, 50, 56); stroke-linejoin: round; transform-origin: 467.158px 217.208px 0px;" id="elp9cd0sztl0e" class="animable"></path><path d="M472.85,217.89c0,.93-.4,1.68-.89,1.68s-.89-.75-.89-1.68.4-1.68.89-1.68S472.85,217,472.85,217.89Z" style="fill: rgb(38, 50, 56); transform-origin: 471.96px 217.89px 0px;" id="elnt6k1a32268" class="animable"></path><path d="M459.39,217.4c0,.92-.4,1.68-.89,1.68s-.89-.76-.89-1.68.4-1.69.89-1.69S459.39,216.47,459.39,217.4Z" style="fill: rgb(38, 50, 56); transform-origin: 458.5px 217.395px 0px;" id="el0ag9wnmacind" class="animable"></path><path d="M463.25,223.23s-.2,1.78,1,2.38a2.72,2.72,0,0,0,3.76-2.38" style="fill: none; stroke: rgb(38, 50, 56); stroke-linejoin: round; transform-origin: 465.624px 224.524px 0px;" id="elx443jrfvz7" class="animable"></path><line x1="463.84" y1="229.37" x2="466.61" y2="229.37" style="fill: none; stroke: rgb(38, 50, 56); stroke-linejoin: round; transform-origin: 465.225px 229.37px 0px;" id="el3p72c6if15t" class="animable"></line><line x1="454.35" y1="213.34" x2="461.08" y2="213.34" style="fill: none; stroke: rgb(38, 50, 56); stroke-linecap: round; stroke-linejoin: round; stroke-width: 2px; transform-origin: 457.715px 213.34px 0px;" id="ele0rlw4gm9t" class="animable"></line><path d="M468,212.75s4.35-2.58,6.73,0" style="fill: none; stroke: rgb(38, 50, 56); stroke-linecap: round; stroke-linejoin: round; stroke-width: 2px; transform-origin: 471.365px 212.177px 0px;" id="elhmhcmmnj3ab" class="animable"></path><line x1="455.53" y1="219.28" x2="458.9" y2="220.07" style="fill: none; stroke: rgb(38, 50, 56); stroke-linejoin: round; transform-origin: 457.215px 219.675px 0px;" id="elrc74n46kyb" class="animable"></line><line x1="475.12" y1="218.88" x2="471.36" y2="220.66" style="fill: none; stroke: rgb(38, 50, 56); stroke-linejoin: round; transform-origin: 473.24px 219.77px 0px;" id="elpo70x9xg8y" class="animable"></line><path d="M481.06,189.2c-1.33-2.5-14.25-7.91-22-3.56,0,0-10.09,3.56-13.46,11.67-2.63,6.35-1.61,9.42,2.84,10.17l3.3,9.42-.4-2.77-.48-6.46c.64,0,1.32,0,2.06-.07,8.12-.59,15.24-2.37,18.8-4a16.8,16.8,0,0,0,5.34-3.56,52.61,52.61,0,0,0,0,5.74c.2,1.58,2.38,3.36,2.38,3.36l.19,6.14,1.19-.2.79-6.92,1-2.77C483.34,206.4,485.09,196.77,481.06,189.2Z" style="fill: rgb(38, 50, 56); stroke: rgb(38, 50, 56); stroke-linejoin: round; transform-origin: 463.895px 200.451px 0px;" id="eludz17zsuxvn" class="animable"></path><line x1="489.57" y1="263.6" x2="497.68" y2="273.69" style="fill: none; stroke: rgb(38, 50, 56); stroke-linejoin: round; transform-origin: 493.625px 268.645px 0px;" id="el4i5oo79vnlv" class="animable"></line><path d="M495.5,260.83l3.17,23.34-30.47,4.55.2,12.27,4.94.4a14.45,14.45,0,0,0,7.92,2.77c4.35,0,26.71-2.77,30.66-3.76s6.34-2,6.73-5.74-8.11-43.33-8.7-45.9-10.29-5.54-10.29-5.54" style="fill: rgb(126, 87, 194); stroke: rgb(38, 50, 56); stroke-linejoin: round; transform-origin: 493.432px 273.69px 0px;" id="elvlkmo4jkvin" class="animable"></path><path d="M507.77,286.35c-3.36-2.38-9.1-2.18-9.1-2.18s4.94-2.17,8.9-.79" style="fill: none; stroke: rgb(38, 50, 56); stroke-linejoin: round; transform-origin: 503.22px 284.635px 0px;" id="elshxlz1n3ig" class="animable"></path><line x1="473.34" y1="288.92" x2="473.74" y2="300.4" style="fill: none; stroke: rgb(38, 50, 56); stroke-linejoin: round; transform-origin: 473.54px 294.66px 0px;" id="el6q7ks7b0dks" class="animable"></line><path d="M468.2,288.72l-9.89-.59-12.07-5.94-2.18,1.19s-4.55,8.51-3.56,9.1,2.37,2.38,3.16,2.38,2.58-1.39,2.58-1.39,4.74,4.75,7.71,4.75a13.17,13.17,0,0,0,5.34-1.19l9.3,1.19Z" style="fill: rgb(255, 255, 255); stroke: rgb(38, 50, 56); stroke-linejoin: round; transform-origin: 454.475px 290.205px 0px;" id="el2b0eieu7xoo" class="animable"></path><polyline points="446.24 293.47 443.66 291.3 443.07 292.29" style="fill: none; stroke: rgb(38, 50, 56); stroke-linejoin: round; transform-origin: 444.655px 292.385px 0px;" id="elkg9eg2wjgyb" class="animable"></polyline><rect x="460.48" y="287.73" width="2.77" height="10.09" style="fill: rgb(38, 50, 56); stroke: rgb(38, 50, 56); stroke-miterlimit: 10; transform-origin: 461.865px 292.775px 0px;" id="eldhw5nk9ecub" class="animable"></rect><ellipse cx="461.87" cy="288.53" rx="2.77" ry="1.58" style="fill: rgb(255, 255, 255); stroke: rgb(38, 50, 56); stroke-linejoin: round; transform-origin: 461.87px 288.53px 0px;" id="ele3vxp7ca9fj" class="animable"></ellipse><path d="M429.81,246.38s-9.89,55.4-9.89,58.77S434.36,323,434.36,323l6.53-6.33-4.35-19Z" style="fill: rgb(126, 87, 194); stroke: rgb(38, 50, 56); stroke-linejoin: round; transform-origin: 430.405px 284.69px 0px;" id="elxmpphc30o1" class="animable"></path><path d="M425.86,299.8s5.73-3.16,9.89-2.57" style="fill: none; stroke: rgb(38, 50, 56); stroke-linejoin: round; transform-origin: 430.805px 298.478px 0px;" id="el0bk72m7vw63k" class="animable"></path><path d="M423.09,299.41s4.94-4,8.7-4" style="fill: none; stroke: rgb(38, 50, 56); stroke-linejoin: round; transform-origin: 427.44px 297.41px 0px;" id="elb6pe0jpc7p" class="animable"></path><path d="M431.4,320s-.2-5.94,8.7-6.14" style="fill: none; stroke: rgb(38, 50, 56); stroke-linejoin: round; transform-origin: 435.75px 316.93px 0px;" id="el6j6sjeoyxc5" class="animable"></path><path d="M440.89,316.62l8.65,2.86a32.49,32.49,0,0,1,2,4.46c.71,2.15,1.79,4.29,1.79,4.83s-.18,1.25-.9,1.25-3.75-2.68-3.75-2.68l-1.78-.9s2.32,3.22,2.85,3.4a26.11,26.11,0,0,1,2.68,1.6s4.65-2.14,4.65-.35-6.79,5.71-6.79,5.71-5.72-1.07-6.79-1.78S434.36,323,434.36,323Z" style="fill: rgb(255, 255, 255); stroke: rgb(38, 50, 56); stroke-linejoin: round; transform-origin: 445.72px 326.71px 0px;" id="el89l0a3026ob" class="animable"></path></g><g id="freepik--Door--inject-2" style="transform-origin: 186.23px 247.75px 0px;" class="animable"><rect x="104.9" y="64" width="162.66" height="367.5" style="fill: rgb(255, 255, 255); stroke: rgb(38, 50, 56); stroke-linejoin: round; transform-origin: 186.23px 247.75px 0px;" id="eldft9hkdrzfb" class="animable"></rect><rect x="111.92" y="75.05" width="71.29" height="77.98" style="fill: rgb(255, 255, 255); stroke: rgb(38, 50, 56); stroke-linejoin: round; transform-origin: 147.565px 114.04px 0px;" id="eloj777ytjf3" class="animable"></rect><rect x="120.43" y="84.35" width="54.29" height="59.38" style="fill: rgb(255, 255, 255); stroke: rgb(38, 50, 56); stroke-linejoin: round; transform-origin: 147.575px 114.04px 0px;" id="el0hu7q3ka0cth" class="animable"></rect><line x1="120.43" y1="84.35" x2="111.92" y2="75.05" style="fill: rgb(255, 255, 255); stroke: rgb(38, 50, 56); stroke-linejoin: round; transform-origin: 116.175px 79.7px 0px;" id="el6cr60ktcryi" class="animable"></line><line x1="120.43" y1="143.73" x2="111.92" y2="153.03" style="fill: rgb(255, 255, 255); stroke: rgb(38, 50, 56); stroke-linejoin: round; transform-origin: 116.175px 148.38px 0px;" id="elxfyvaze63w" class="animable"></line><line x1="174.71" y1="84.35" x2="183.22" y2="75.05" style="fill: rgb(255, 255, 255); stroke: rgb(38, 50, 56); stroke-linejoin: round; transform-origin: 178.965px 79.7px 0px;" id="elxw866mbb7se" class="animable"></line><line x1="174.71" y1="143.73" x2="183.22" y2="153.03" style="fill: rgb(255, 255, 255); stroke: rgb(38, 50, 56); stroke-linejoin: round; transform-origin: 178.965px 148.38px 0px;" id="el41q6y6obgw" class="animable"></line><rect x="188.94" y="75.05" width="71.29" height="77.98" style="fill: rgb(255, 255, 255); stroke: rgb(38, 50, 56); stroke-linejoin: round; transform-origin: 224.585px 114.04px 0px;" id="elhp8273bjzxu" class="animable"></rect><rect x="197.44" y="84.35" width="54.29" height="59.38" style="fill: rgb(255, 255, 255); stroke: rgb(38, 50, 56); stroke-linejoin: round; transform-origin: 224.585px 114.04px 0px;" id="elpiyimq61pvd" class="animable"></rect><line x1="197.44" y1="84.35" x2="188.94" y2="75.05" style="fill: rgb(255, 255, 255); stroke: rgb(38, 50, 56); stroke-linejoin: round; transform-origin: 193.19px 79.7px 0px;" id="elyuo71bun73i" class="animable"></line><line x1="197.44" y1="143.73" x2="188.94" y2="153.03" style="fill: rgb(255, 255, 255); stroke: rgb(38, 50, 56); stroke-linejoin: round; transform-origin: 193.19px 148.38px 0px;" id="elkh41lcuh9vs" class="animable"></line><line x1="251.73" y1="84.35" x2="260.23" y2="75.05" style="fill: rgb(255, 255, 255); stroke: rgb(38, 50, 56); stroke-linejoin: round; transform-origin: 255.98px 79.7px 0px;" id="eld1n7s0kwmz9" class="animable"></line><line x1="251.73" y1="143.73" x2="260.23" y2="153.03" style="fill: rgb(255, 255, 255); stroke: rgb(38, 50, 56); stroke-linejoin: round; transform-origin: 255.98px 148.38px 0px;" id="ellvdbtpn5dhr" class="animable"></line><rect x="111.92" y="161.06" width="71.29" height="77.98" style="fill: rgb(255, 255, 255); stroke: rgb(38, 50, 56); stroke-linejoin: round; transform-origin: 147.565px 200.05px 0px;" id="elt54tgcdec2q" class="animable"></rect><rect x="120.43" y="170.36" width="54.29" height="59.38" style="fill: rgb(255, 255, 255); stroke: rgb(38, 50, 56); stroke-linejoin: round; transform-origin: 147.575px 200.05px 0px;" id="elo91euuyr41d" class="animable"></rect><line x1="120.43" y1="170.36" x2="111.92" y2="161.06" style="fill: rgb(255, 255, 255); stroke: rgb(38, 50, 56); stroke-linejoin: round; transform-origin: 116.175px 165.71px 0px;" id="elc6ofo6o7e8" class="animable"></line><line x1="120.43" y1="229.75" x2="111.92" y2="239.05" style="fill: rgb(255, 255, 255); stroke: rgb(38, 50, 56); stroke-linejoin: round; transform-origin: 116.175px 234.4px 0px;" id="eluq7k23n6k8j" class="animable"></line><line x1="174.71" y1="170.36" x2="183.22" y2="161.06" style="fill: rgb(255, 255, 255); stroke: rgb(38, 50, 56); stroke-linejoin: round; transform-origin: 178.965px 165.71px 0px;" id="el8amjgsccf18" class="animable"></line><line x1="174.71" y1="229.75" x2="183.22" y2="239.05" style="fill: rgb(255, 255, 255); stroke: rgb(38, 50, 56); stroke-linejoin: round; transform-origin: 178.965px 234.4px 0px;" id="eleifm7w6ikqm" class="animable"></line><rect x="188.94" y="161.06" width="71.29" height="77.98" style="fill: rgb(255, 255, 255); stroke: rgb(38, 50, 56); stroke-linejoin: round; transform-origin: 224.585px 200.05px 0px;" id="elh41671blws7" class="animable"></rect><rect x="197.44" y="170.36" width="54.29" height="59.38" style="fill: rgb(255, 255, 255); stroke: rgb(38, 50, 56); stroke-linejoin: round; transform-origin: 224.585px 200.05px 0px;" id="el9281giiojsv" class="animable"></rect><line x1="197.44" y1="170.36" x2="188.94" y2="161.06" style="fill: rgb(255, 255, 255); stroke: rgb(38, 50, 56); stroke-linejoin: round; transform-origin: 193.19px 165.71px 0px;" id="el5q4kg9mwdb" class="animable"></line><line x1="197.44" y1="229.75" x2="188.94" y2="239.05" style="fill: rgb(255, 255, 255); stroke: rgb(38, 50, 56); stroke-linejoin: round; transform-origin: 193.19px 234.4px 0px;" id="el48xbog0pz0y" class="animable"></line><line x1="251.73" y1="170.36" x2="260.23" y2="161.06" style="fill: rgb(255, 255, 255); stroke: rgb(38, 50, 56); stroke-linejoin: round; transform-origin: 255.98px 165.71px 0px;" id="el7dy9ds9wco9" class="animable"></line><line x1="251.73" y1="229.75" x2="260.23" y2="239.05" style="fill: rgb(255, 255, 255); stroke: rgb(38, 50, 56); stroke-linejoin: round; transform-origin: 255.98px 234.4px 0px;" id="eldhg5ygtcwbd" class="animable"></line><rect x="111.92" y="256.12" width="71.29" height="77.98" style="fill: rgb(255, 255, 255); stroke: rgb(38, 50, 56); stroke-linejoin: round; transform-origin: 147.565px 295.11px 0px;" id="elhxc92uvq64u" class="animable"></rect><rect x="120.43" y="265.42" width="54.29" height="59.38" style="fill: rgb(255, 255, 255); stroke: rgb(38, 50, 56); stroke-linejoin: round; transform-origin: 147.575px 295.11px 0px;" id="elb250ikqsj5i" class="animable"></rect><line x1="120.43" y1="265.42" x2="111.92" y2="256.12" style="fill: rgb(255, 255, 255); stroke: rgb(38, 50, 56); stroke-linejoin: round; transform-origin: 116.175px 260.77px 0px;" id="elus5z6kfjq8q" class="animable"></line><line x1="120.43" y1="324.8" x2="111.92" y2="334.1" style="fill: rgb(255, 255, 255); stroke: rgb(38, 50, 56); stroke-linejoin: round; transform-origin: 116.175px 329.45px 0px;" id="elbmwjg4bvy5v" class="animable"></line><line x1="174.71" y1="265.42" x2="183.22" y2="256.12" style="fill: rgb(255, 255, 255); stroke: rgb(38, 50, 56); stroke-linejoin: round; transform-origin: 178.965px 260.77px 0px;" id="elbbzobmyg4r" class="animable"></line><line x1="174.71" y1="324.8" x2="183.22" y2="334.1" style="fill: rgb(255, 255, 255); stroke: rgb(38, 50, 56); stroke-linejoin: round; transform-origin: 178.965px 329.45px 0px;" id="elr7v2hwg8gk" class="animable"></line><rect x="188.94" y="256.12" width="71.29" height="77.98" style="fill: rgb(255, 255, 255); stroke: rgb(38, 50, 56); stroke-linejoin: round; transform-origin: 224.585px 295.11px 0px;" id="el6oh4xjq4837" class="animable"></rect><rect x="197.44" y="265.42" width="54.29" height="59.38" style="fill: rgb(255, 255, 255); stroke: rgb(38, 50, 56); stroke-linejoin: round; transform-origin: 224.585px 295.11px 0px;" id="elj9ghlvfj1gk" class="animable"></rect><line x1="197.44" y1="265.42" x2="188.94" y2="256.12" style="fill: rgb(255, 255, 255); stroke: rgb(38, 50, 56); stroke-linejoin: round; transform-origin: 193.19px 260.77px 0px;" id="el7e4j80g3g6j" class="animable"></line><line x1="197.44" y1="324.8" x2="188.94" y2="334.1" style="fill: rgb(255, 255, 255); stroke: rgb(38, 50, 56); stroke-linejoin: round; transform-origin: 193.19px 329.45px 0px;" id="elhhnii5swlm" class="animable"></line><line x1="251.73" y1="265.42" x2="260.23" y2="256.12" style="fill: rgb(255, 255, 255); stroke: rgb(38, 50, 56); stroke-linejoin: round; transform-origin: 255.98px 260.77px 0px;" id="el6fy9gps4lwc" class="animable"></line><line x1="251.73" y1="324.8" x2="260.23" y2="334.1" style="fill: rgb(255, 255, 255); stroke: rgb(38, 50, 56); stroke-linejoin: round; transform-origin: 255.98px 329.45px 0px;" id="eljssz03desxk" class="animable"></line><rect x="111.92" y="342.14" width="71.29" height="77.98" style="fill: rgb(255, 255, 255); stroke: rgb(38, 50, 56); stroke-linejoin: round; transform-origin: 147.565px 381.13px 0px;" id="elwgktp47zop" class="animable"></rect><rect x="120.43" y="351.44" width="54.29" height="59.38" style="fill: rgb(255, 255, 255); stroke: rgb(38, 50, 56); stroke-linejoin: round; transform-origin: 147.575px 381.13px 0px;" id="elzxd0seu3u9" class="animable"></rect><line x1="120.43" y1="351.44" x2="111.92" y2="342.14" style="fill: rgb(255, 255, 255); stroke: rgb(38, 50, 56); stroke-linejoin: round; transform-origin: 116.175px 346.79px 0px;" id="elbq4vk7spfxj" class="animable"></line><line x1="120.43" y1="410.82" x2="111.92" y2="420.12" style="fill: rgb(255, 255, 255); stroke: rgb(38, 50, 56); stroke-linejoin: round; transform-origin: 116.175px 415.47px 0px;" id="elh2jany7imp8" class="animable"></line><line x1="174.71" y1="351.44" x2="183.22" y2="342.14" style="fill: rgb(255, 255, 255); stroke: rgb(38, 50, 56); stroke-linejoin: round; transform-origin: 178.965px 346.79px 0px;" id="ellg0ucxy1wql" class="animable"></line><line x1="174.71" y1="410.82" x2="183.22" y2="420.12" style="fill: rgb(255, 255, 255); stroke: rgb(38, 50, 56); stroke-linejoin: round; transform-origin: 178.965px 415.47px 0px;" id="el6l8i5ijgsg3" class="animable"></line><rect x="188.94" y="342.14" width="71.29" height="77.98" style="fill: rgb(255, 255, 255); stroke: rgb(38, 50, 56); stroke-linejoin: round; transform-origin: 224.585px 381.13px 0px;" id="elf7u2bfvgb9b" class="animable"></rect><rect x="197.44" y="351.44" width="54.29" height="59.38" style="fill: rgb(255, 255, 255); stroke: rgb(38, 50, 56); stroke-linejoin: round; transform-origin: 224.585px 381.13px 0px;" id="el4n0j04pfpmh" class="animable"></rect><line x1="197.44" y1="351.44" x2="188.94" y2="342.14" style="fill: rgb(255, 255, 255); stroke: rgb(38, 50, 56); stroke-linejoin: round; transform-origin: 193.19px 346.79px 0px;" id="elbddhtd3ubit" class="animable"></line><line x1="197.44" y1="410.82" x2="188.94" y2="420.12" style="fill: rgb(255, 255, 255); stroke: rgb(38, 50, 56); stroke-linejoin: round; transform-origin: 193.19px 415.47px 0px;" id="eljynfioglcjm" class="animable"></line><line x1="251.73" y1="351.44" x2="260.23" y2="342.14" style="fill: rgb(255, 255, 255); stroke: rgb(38, 50, 56); stroke-linejoin: round; transform-origin: 255.98px 346.79px 0px;" id="eldiv38kke9pa" class="animable"></line><line x1="251.73" y1="410.82" x2="260.23" y2="420.12" style="fill: rgb(255, 255, 255); stroke: rgb(38, 50, 56); stroke-linejoin: round; transform-origin: 255.98px 415.47px 0px;" id="el2xpi8yj5u44" class="animable"></line><g id="eltp81sxwlvzc"><circle cx="255.18" cy="247.41" r="7.36" style="fill: rgb(255, 255, 255); stroke: rgb(38, 50, 56); stroke-linejoin: round; transform-origin: 255.18px 247.41px 0px; transform: rotate(-9.24deg);" class="animable"></circle></g><path d="M257.85,247.41a2.68,2.68,0,1,0-2.67,2.68A2.68,2.68,0,0,0,257.85,247.41Z" style="fill: rgb(255, 255, 255); stroke: rgb(38, 50, 56); stroke-linejoin: round; transform-origin: 255.17px 247.41px 0px;" id="ell51o5v07eg" class="animable"></path></g><defs>     <filter id="active" height="200%">         <feMorphology in="SourceAlpha" result="DILATED" operator="dilate" radius="2"></feMorphology>                <feFlood flood-color="#32DFEC" flood-opacity="1" result="PINK"></feFlood>        <feComposite in="PINK" in2="DILATED" operator="in" result="OUTLINE"></feComposite>        <feMerge>            <feMergeNode in="OUTLINE"></feMergeNode>            <feMergeNode in="SourceGraphic"></feMergeNode>        </feMerge>    </filter>    <filter id="hover" height="200%">        <feMorphology in="SourceAlpha" result="DILATED" operator="dilate" radius="2"></feMorphology>                <feFlood flood-color="#ff0000" flood-opacity="0.5" result="PINK"></feFlood>        <feComposite in="PINK" in2="DILATED" operator="in" result="OUTLINE"></feComposite>        <feMerge>            <feMergeNode in="OUTLINE"></feMergeNode>            <feMergeNode in="SourceGraphic"></feMergeNode>        </feMerge>            <feColorMatrix type="matrix" values="0   0   0   0   0                0   1   0   0   0                0   0   0   0   0                0   0   0   1   0 "></feColorMatrix>    </filter></defs></svg>