<svg width="241" height="199" viewBox="0 0 241 199" fill="none" xmlns="http://www.w3.org/2000/svg">
<g id="XeLogo">
<path id="arc" d="M96.2222 198.687C78.136 197.319 60.7357 191.491 45.7332 181.776C30.7308 172.061 18.6433 158.794 10.66 143.282C2.67674 127.769 -0.927163 110.544 0.202904 93.3025C1.33297 76.061 7.15807 59.3967 17.105 44.9493C27.052 30.5019 40.7781 18.7692 56.9326 10.9058C73.0872 3.04233 91.1136 -0.680939 109.238 0.102329C127.363 0.885596 144.961 6.14841 160.301 15.3729C175.641 24.5974 188.194 37.4658 196.726 52.7117L191.829 55.1958C183.751 40.7592 171.864 28.5741 157.338 19.8393C142.813 11.1045 126.149 6.12112 108.987 5.37944C91.8243 4.63775 74.7549 8.16335 59.458 15.6093C44.1611 23.0553 31.1638 34.165 21.7449 47.8454C12.326 61.5258 6.81019 77.3054 5.74012 93.6316C4.67005 109.958 8.08262 126.268 15.6421 140.957C23.2015 155.646 34.6473 168.209 48.8532 177.408C63.0592 186.607 79.5357 192.126 96.6617 193.421L96.2222 198.687Z" fill="url(#paint0_linear)"/>
<path id="xe" d="M46.8467 199C47.5016 199 48.1149 198.679 48.4888 198.142L88.5877 140.469C89.4912 139.17 91.4746 139.385 92.0785 140.848L115.572 197.763C115.881 198.512 116.611 199 117.421 199H140.416C141.841 199 142.809 197.552 142.264 196.235L108.834 115.491C108.564 114.84 108.657 114.095 109.078 113.53L163.111 41.0638C164.094 39.7447 163.153 37.8683 161.507 37.8683H137.243C136.603 37.8683 136.002 38.1746 135.625 38.6923L99.8255 87.9409C98.8879 89.2308 96.8918 88.9584 96.3341 87.4645L78.3029 39.1688C78.0109 38.3868 77.264 37.8683 76.4292 37.8683H50.9083C49.4769 37.8683 48.5089 39.3282 49.066 40.6468L79.6068 112.926C79.8809 113.574 79.7938 114.319 79.3775 114.887L20.0442 195.817C19.0757 197.139 20.0191 199 21.6572 199H46.8467ZM233.521 165.915C234.063 164.8 233.435 163.479 232.236 163.164L214.219 158.43C213.231 158.17 212.211 158.701 211.797 159.635C207.635 169.008 199.751 174.885 190.694 174.885C178.232 174.885 169.836 166.655 171.353 148.628C171.438 147.616 172.297 146.855 173.313 146.855H200.8C222.457 146.855 240.307 139.339 240.963 113.971C241.882 91.4223 225.607 78.4253 204.606 78.4253C179.669 78.4253 155.256 97.9991 148.562 138.713C141.999 179.426 159.981 199 185.181 199C206.671 199 222.864 187.829 233.521 165.915ZM200.275 102.54C208.544 102.54 216.419 106.298 216.419 114.128C216.419 122.427 211.038 126.499 202.638 126.499H177.806C176.493 126.499 175.536 125.25 175.945 124.002C180.594 109.827 190.963 102.54 200.275 102.54Z" fill="url(#paint1_linear)"/>
</g>
<defs>
<linearGradient id="paint0_linear" x1="180" y1="-1.32192e-07" x2="104.5" y2="199" gradientUnits="userSpaceOnUse">
<stop stop-color="#E90DCA"/>
<stop offset="1" stop-color="#1536F1"/>
</linearGradient>
<linearGradient id="paint1_linear" x1="15.8177" y1="39.1051" x2="228.793" y2="122.347" gradientUnits="userSpaceOnUse">
<stop stop-color="#E90DCA"/>
<stop offset="1" stop-color="#1536F1"/>
</linearGradient>
</defs>
</svg>
